<svg xmlns="http://www.w3.org/2000/svg" width="63" height="66"><g fill="none" fill-rule="evenodd"><path d="M-3-2h70v70H-3z"/><path fill="#52AE30" fill-opacity=".3" d="m44 48 19-17v28a7 7 0 0 1-7 7H9a5 5 0 0 1-5-5V32l19 16h21z"/><path stroke="#FFF" stroke-linecap="round" stroke-linejoin="round" stroke-width="2" d="m11 56 11.583-11M43 45l11 11"/><path stroke="#52AE30" stroke-linecap="round" stroke-linejoin="round" stroke-width="2" d="m42 45 18-16v29a5 5 0 0 1-5 5H6a5 5 0 0 1-5-5V29l19 16h22zM9 56l11.583-11M41 45l11 11"/><path stroke="#52AE30" stroke-linecap="round" stroke-linejoin="round" stroke-width="2" d="m24 11 6.5-5 6.5 5m23 18L42 45H20L1 29"/><path stroke="#52AE30" stroke-linecap="round" stroke-width="2" d="M4 26.5V15h53v11.5M14 22h33m-33 5h16m-16 5h26"/><path fill="#52AE30" fill-opacity=".3" d="m34 7 8 6H26z"/><path stroke="#52AE30" stroke-linecap="round" stroke-linejoin="round" stroke-width="2" d="m21.484 8.03 1.732-1.351m2.62-2.042L30.5 1l11.45 8.927" opacity=".5"/></g></svg>