<svg width="154" height="34" xmlns="http://www.w3.org/2000/svg">
 <g>
  <path id="svg_2" fill="#006C3F" d="m48.534386,11.840614c-1.436584,0 -3.063797,0.730602 -4.001892,5.1908c-1.043106,4.960403 1.037201,5.277496 2.0457,5.277496c0.917007,0 2.8694,-0.500198 3.840294,-5.249596c0.681305,-3.323898 0.139503,-5.2187 -1.884102,-5.2187m7.138603,5.2188c-1.3134,7.505699 -5.978401,8.464706 -9.926506,8.464706c-3.897995,0 -7.48819,-2.688904 -6.472992,-8.503204c0.793793,-4.543098 3.487198,-8.748001 10.037201,-8.426102c4.567802,0.223602 7.254295,3.3577 6.362297,8.4646" clip-rule="evenodd" fill-rule="evenodd"/>
  <path id="svg_3" fill="#006C3F" d="m65.620094,24.88052l-0.245003,0.243896c-0.979004,0.184998 -2.127998,0.337296 -2.750999,0.337296c-2.308998,0 -5.694801,-0.348892 -4.263,-6.181496c0.970001,-3.941803 1.665001,-6.8908 1.665001,-6.8908l-2.139404,0.061699l-0.183701,-0.2439l0.8871,-3.093601l0.213699,-0.152298l2.017303,0l0.887001,-3.949402l0.211998,-0.212997c2.293999,-0.520401 2.904999,-0.674599 5.014999,-1.287601l0.181999,0.185101l-1.345001,5.326599l3.119003,-0.061699l0.121002,0.213997c-0.427002,1.286602 -0.550003,1.623901 -0.947006,3.061802l-0.242996,0.214001l-2.812996,-0.061699c0,0 -0.571007,2.376598 -1.371002,5.684204c-0.863998,3.574493 -0.409004,3.394295 0.455002,3.734497c0.738998,0.292999 1.709,-0.081902 2.258995,-0.264999l0.185005,0.155098l-0.917,3.182304z" clip-rule="evenodd" fill-rule="evenodd"/>
  <path id="svg_4" fill="#006C3F" d="m74.204094,21.820919c1.447998,0.172501 3.026001,-0.306503 4.095001,-1.195999c1.221985,-1.039902 2.322998,-3.182304 2.322998,-5.508804c0,-2.5732 -1.649994,-2.8778 -2.261002,-2.8778c-0.884995,0 -1.559998,0.458801 -2.202011,0.8867l-1.954987,8.695904zm2.475998,-11.725906c0.796005,-0.550301 2.108994,-1.469696 4.095993,-1.469696c3.057007,0 5.104004,2.294701 5.104004,6.183399c0,2.204998 -0.764008,4.807201 -2.352997,6.7356c-3.027008,3.704704 -6.847,3.672905 -10.088013,3.672905l-1.737991,7.316799l-0.214996,0.152199c-0.703003,0 -1.375992,-0.027901 -2.078003,-0.027901c-1.041,0 -1.957993,0.0597 -3.086998,0.091499l-0.153,-0.215797c0,0 1.075005,-3.243999 2.416008,-8.823208c1.40799,-5.853798 2.722992,-12.7118 2.838989,-14.108299l0.213013,-0.211998l5.22699,-0.855797l0.182999,0.212997l-0.365997,1.347298z" clip-rule="evenodd" fill-rule="evenodd"/>
  <path id="svg_5" fill="#52AE30" d="m89.887093,22.768917c1.731003,0.080902 4.278992,0.029892 6.265991,-1.316498c2.262009,-1.563202 3.333008,-4.286804 3.333008,-6.247005c0,-2.784298 -1.682999,-3.856899 -3.639999,-3.856899c-1.557999,0 -2.658005,0.674599 -3.636002,1.286598c0,0 -2.134003,9.382103 -2.322998,10.133804l0,0zm-3.729004,2.233498c0.203003,-0.9291 1.520996,-6.3675 2.865997,-12.484398c1.154007,-5.246704 1.957001,-8.5215 2.238998,-10.966499l0.243011,-0.214005l3.332001,-0.5811l0.153,0.215805l-0.855011,3.397297l-1.40799,5.8769c1.285995,-0.704502 2.507996,-1.378201 4.463989,-1.378201c3.025009,0 5.563004,2.051903 5.563004,5.910702c0,1.560299 -0.488998,4.498798 -2.537994,6.856098c-2.75,3.153404 -6.143005,3.367401 -10.085999,3.521599l-1.681,0l-2.139008,0.0298l-0.153,-0.183998z" clip-rule="evenodd" fill-rule="evenodd"/>
  <path id="svg_6" fill="#52AE30" d="m116.883095,11.533413c-0.460007,0 -0.917007,-0.0298 -1.376999,-0.0298c-1.009003,0 -2.996002,0.060699 -4.800003,1.284603c-3.209,2.203197 -3.268997,6.154499 -3.268997,6.306797c0,1.469704 0.794998,3.826103 3.574997,3.826103c0.824997,0 2.190994,-0.194702 3.667999,-1.500603l2.203003,-9.8871zm2.259003,3.8866c-1.069,4.714596 -1.282013,5.877903 -1.893005,9.521801l-0.214005,0.212997l-2.873001,0.062607l-0.153992,-0.212906l0.213989,-1.224998c-0.518997,0.427902 -1.86499,1.560295 -4.463989,1.560295c-3.115997,0 -5.653,-2.204094 -5.653,-6.03009c0,-2.417099 1.162003,-5.051003 2.444992,-6.582405c2.84201,-3.336502 6.785004,-3.521599 9.598007,-3.521599l4.216995,0.0299l0.152008,0.245701l-1.375,5.938698z" clip-rule="evenodd" fill-rule="evenodd"/>
  <path id="svg_7" fill="#52AE30" d="m134.279083,24.97282l-0.244995,0.182098l-3.117004,0.093491l-0.124008,-0.21489c0.449005,-2.061508 2.332001,-8.965805 2.354004,-11.114006c0.020996,-1.835899 -1.128998,-2.449799 -2.567001,-2.449799c-1.893997,0 -3.14698,0.951202 -4.063988,1.624901c-1.132996,5.143494 -1.498993,6.766403 -2.477997,11.878204l-0.212006,0.182098l-3.119003,0.093491l-0.151993,-0.21489c0,0 0.927002,-3.746109 1.763,-7.642502c0.658005,-3.050301 1.196991,-5.564705 1.445999,-7.662804l0.214005,-0.2159c1.436996,-0.182098 1.774002,-0.243801 3.238998,-0.550297l0.153,0.212997l-0.427002,1.562202c1.191994,-0.797005 2.720985,-1.865803 5.255989,-1.865803c1.009003,0 4.309998,0.2728 4.309998,3.978401c0,2.214699 -1.931,9.9603 -2.229996,12.123005" clip-rule="evenodd" fill-rule="evenodd"/>
  <path id="svg_8" fill="#52AE30" d="m145.958084,15.842716l4.737991,9.030296l-0.184998,0.243896l-3.391998,0.093407l-0.246002,-0.185005c-0.789001,-2.150101 -4.246994,-8.906998 -4.246994,-8.906998c-0.886002,3.887802 -1.070007,4.805298 -1.834,8.846298l-0.214996,0.183105l-3.085999,0.062599l-0.122009,-0.185005c0,0 1.630997,-6.787697 3.042007,-13.070297c0.659988,-2.937599 1.68399,-7.5905 2.091995,-10.4105l0.216003,-0.183998l3.330002,-0.5494l0.182999,0.214897c-0.615005,2.114502 -3.513,14.662502 -3.513,14.662502c2.190002,-1.922703 5.835999,-5.755501 6.324997,-6.275898l0.337006,-0.184101l3.515991,0l0.091003,0.2756c-0.867996,0.688198 -2.477005,2.144398 -3.057007,2.663799l-3.972992,3.674801z" clip-rule="evenodd" fill-rule="evenodd"/>
  <path id="svg_9" fill="#006C3F" d="m16.067389,0.749615l0,5.462502c-5.316391,0.009697 -9.623398,4.3302 -9.623398,9.656799c0,5.333397 4.316696,9.656799 9.640793,9.656799c5.293304,0 9.641602,-4.283897 9.641602,-9.692501l5.456009,0.003902c0,8.382698 -6.759796,15.153002 -15.09761,15.153002c-8.337891,0 -15.096695,-6.770304 -15.096695,-15.121202c0,-8.344101 6.751099,-15.110603 15.0793,-15.119301z" clip-rule="evenodd" fill-rule="evenodd"/>
  <path id="svg_10" fill="#52AE30" d="m16.120886,9.161213c3.699799,0 6.697205,3.004002 6.697205,6.707703c0,3.704597 -2.997406,6.705803 -6.696198,6.705803c-3.697906,0 -6.696304,-3.001205 -6.696304,-6.705803c0,-3.703701 2.998398,-6.707703 6.695297,-6.707703z" clip-rule="evenodd" fill-rule="evenodd"/>
  <path id="svg_11" fill="#006C3F" d="m24.604788,3.529915c2.118896,0 3.836502,1.723202 3.836502,3.845303c0,2.121197 -1.717606,3.842499 -3.836502,3.842499c-2.118896,0 -3.838394,-1.721302 -3.838394,-3.842499c0,-2.122101 1.719498,-3.845303 3.838394,-3.845303z" clip-rule="evenodd" fill-rule="evenodd"/>
 </g>
</svg>
