<svg width="200" height="200" viewBox="0 0 200 200" fill="none" xmlns="http://www.w3.org/2000/svg">
<path d="M200 0H0V200H200V0Z" fill="white"/>
<path d="M168.9 181C167 181 165 181 162.9 181C162.9 183 162.9 184.9 162.9 186.9C160.8 186.9 158.9 186.9 156.9 186.9C156.9 185 156.9 183.1 156.9 181C154.9 181 153 181 150.9 181C150.9 178.9 150.9 177 150.9 174.9C148.8 174.9 146.8 174.9 144.8 174.9C144.8 172.9 144.8 170.9 144.8 168.8C146.9 168.8 148.8 168.8 150.7 168.8C150.7 166.8 150.7 164.9 150.7 162.8C144.7 162.8 138.8 162.8 132.7 162.8C132.7 160.7 132.7 158.8 132.7 156.8C128.6 156.8 124.7 156.8 120.7 156.8C120.7 152.8 120.7 148.8 120.7 144.7C124.8 144.7 128.7 144.7 132.7 144.7C132.7 136.6 132.7 128.7 132.7 120.7C136.7 120.7 140.7 120.7 144.7 120.7C144.7 124.7 144.7 128.7 144.7 132.6C148.8 132.6 152.7 132.6 156.6 132.6C156.6 128.6 156.6 124.7 156.6 120.7C152.6 120.7 148.6 120.7 144.7 120.7C144.7 118.7 144.7 116.7 144.7 114.6C146.8 114.6 148.7 114.6 150.8 114.6C150.8 112.5 150.8 110.6 150.8 108.7C152.9 108.7 154.8 108.7 156.8 108.7C156.8 110.7 156.8 112.7 156.8 114.7C158.9 114.7 160.9 114.7 162.8 114.7C162.8 122.7 162.8 130.7 162.8 138.6C164.9 138.6 166.8 138.6 168.9 138.6C168.9 136.6 168.9 134.7 168.9 132.7C170.9 132.7 172.9 132.7 174.9 132.7C174.9 130.6 174.9 128.7 174.9 126.7C176.9 126.7 178.8 126.7 180.9 126.7C180.9 128.7 180.9 130.6 180.9 132.6C182.9 132.6 184.8 132.6 186.8 132.6C186.8 136.6 186.8 140.5 186.8 144.6C182.9 144.6 179 144.6 175 144.6C175 146.7 175 148.7 175 150.7C171 150.7 167 150.7 163 150.7C163 154.8 163 158.7 163 162.7C161 162.7 159 162.7 157.1 162.7C157.1 164.8 157.1 166.7 157.1 168.6C159.1 168.6 161 168.6 163 168.6C163 166.6 163 164.6 163 162.7C165 162.7 167 162.7 169.1 162.7C169.1 160.6 169.1 158.7 169.1 156.7C171.1 156.7 173 156.7 175.1 156.7C175.1 154.7 175.1 152.7 175.1 150.8C179 150.8 183 150.8 187 150.8C187 156.8 187 162.7 187 168.7C185.1 168.7 183.2 168.7 181.1 168.7C181.1 172.7 181.1 176.6 181.1 180.7C179 180.7 177 180.7 175 180.7C175 178.7 175 176.7 175 174.8C172.9 174.8 171 174.8 169 174.8C168.9 177.1 168.9 179.1 168.9 181ZM139.1 156.9C145.1 156.9 151.1 156.9 156.9 156.9C156.9 150.9 156.9 145 156.9 139.1C150.9 139.1 145 139.1 139.1 139.1C139.1 145 139.1 150.9 139.1 156.9Z" fill="black"/>
<path d="M96.9 67.1C98.9 67.1 100.9 67.1 102.9 67.1C102.9 69 102.9 70.9 102.9 73C104.9 73 106.8 73 108.9 73C108.9 75.1 108.9 77 108.9 79.1C111 79.1 113 79.1 115 79.1C115 81.1 115 83.1 115 85.1C119.1 85.1 123.1 85.1 127 85.1C127 87.1 127 89.1 127 91C135.1 91 143 91 151 91C151 89 151 87 151 85.1C153 85.1 155 85.1 157 85.1C157 87.1 157 89.1 157 91.1C159.1 91.1 161.1 91.1 163 91.1C163 93 163 95 163 97.1C167 97.1 170.9 97.1 175 97.1C175 99.2 175 101.2 175 103.2C171 103.2 167 103.2 163 103.2C163 105.3 163 107.3 163 109.2C161 109.2 159 109.2 157 109.2C157 105.2 157 101.3 157 97.3C152.9 97.3 149 97.3 144.9 97.3C144.9 99.3 144.9 101.2 144.9 103.2C142.8 103.2 140.9 103.2 138.9 103.2C138.9 101.2 138.9 99.2 138.9 97.3C132.8 97.3 126.9 97.3 120.9 97.3C120.9 99.3 120.9 101.2 120.9 103.3C116.9 103.3 113 103.3 109 103.3C109 105.3 109 107.2 109 109.3C113 109.3 116.9 109.3 120.9 109.3C120.9 111.4 120.9 113.3 120.9 115.3C114.9 115.3 108.9 115.3 102.9 115.3C102.9 111.3 102.9 107.3 102.9 103.4C96.8 103.4 90.9 103.4 84.9 103.4C84.9 107.4 84.9 111.4 84.9 115.3C82.9 115.3 81 115.3 78.9 115.3C78.9 111.3 78.9 107.4 78.9 103.4C76.9 103.4 75 103.4 73 103.4C73 101.4 73 99.5 73 97.4C80.9 97.4 88.8 97.4 96.9 97.4C96.9 95.3 96.9 93.3 96.9 91.3C98.9 91.3 100.9 91.3 102.9 91.3C102.9 93.3 102.9 95.3 102.9 97.2C107 97.2 110.9 97.2 114.8 97.2C114.8 95.2 114.8 93.3 114.8 91.3C110.8 91.3 106.8 91.3 102.9 91.3C102.9 87.4 102.9 83.4 102.9 79.3C100.9 79.3 99 79.3 96.9 79.3C97 75 97 71 96.9 67.1C97 67 96.9 67.1 96.9 67.1Z" fill="black"/>
<path d="M13.1001 54.9C13.1001 40.9 13.1001 27 13.1001 13.1C27.1001 13.1 40.9001 13.1 54.9001 13.1C54.9001 27 54.9001 40.9 54.9001 54.9C41.0001 54.9 27.1001 54.9 13.1001 54.9ZM48.9001 49C48.9001 39 48.9001 29 48.9001 19.1C38.9001 19.1 29.0001 19.1 19.1001 19.1C19.1001 29.1 19.1001 39 19.1001 49C29.1001 49 38.9001 49 48.9001 49Z" fill="black"/>
<path d="M186.8 13.1C186.8 27.1 186.8 41 186.8 54.9C172.8 54.9 159 54.9 145 54.9C145 41 145 27.1 145 13.1C158.9 13.1 172.8 13.1 186.8 13.1ZM180.8 19.1C170.8 19.1 160.9 19.1 151 19.1C151 29.1 151 39 151 48.9C161 48.9 170.9 48.9 180.8 48.9C180.8 39 180.8 29.1 180.8 19.1Z" fill="black"/>
<path d="M13.1001 186.9C13.1001 172.9 13.1001 159 13.1001 145.1C27.1001 145.1 40.9001 145.1 54.9001 145.1C54.9001 159 54.9001 172.9 54.9001 186.9C41.0001 186.9 27.1001 186.9 13.1001 186.9ZM48.9001 151.1C38.9001 151.1 28.9001 151.1 19.1001 151.1C19.1001 161.1 19.1001 171 19.1001 180.9C29.1001 180.9 39.0001 180.9 48.9001 180.9C48.9001 171 48.9001 161.1 48.9001 151.1Z" fill="black"/>
<path d="M60.8999 139.1C64.8999 139.1 68.7999 139.1 72.8999 139.1C72.8999 137 72.8999 135 72.8999 133.1C74.8999 133.1 76.7999 133.1 78.8999 133.1C78.8999 137 78.8999 140.9 78.8999 145C84.9999 145 90.9999 145 96.9999 145C96.9999 147 96.9999 149 96.9999 151C92.9999 151 88.9999 151 84.9999 151C84.9999 155.1 84.9999 159 84.9999 163C82.9999 163 81.0999 163 78.9999 163C78.9999 165 78.9999 167 78.9999 169C76.9999 169 75.0999 169 73.0999 169C73.0999 173 73.0999 177 73.0999 181C74.9999 181 76.9999 181 78.8999 181C78.8999 183 78.8999 184.9 78.8999 186.9C72.9999 186.9 66.9999 186.9 60.9999 186.9C60.9999 177 60.9999 167.1 60.9999 157.1C62.8999 157.1 64.7999 157.1 66.8999 157.1C66.8999 159 66.8999 160.9 66.8999 162.9C68.8999 162.9 70.7999 162.9 72.8999 162.9C72.8999 161 72.8999 159.1 72.8999 157C74.9999 157 76.8999 157 78.8999 157C78.8999 155 78.8999 153.1 78.8999 151C76.9999 151 75.0999 151 72.9999 151C72.9999 148.9 72.9999 147 72.9999 145C70.9999 145 69.0999 145 66.9999 145C66.9999 146.9 66.9999 148.9 66.9999 150.9C64.9999 150.9 63.0999 150.9 60.8999 150.9C60.9999 147 60.9999 143 60.8999 139.1C60.9999 139 60.8999 139.1 60.8999 139.1Z" fill="black"/>
<path d="M127 55C129 55 130.9 55 132.9 55C132.9 51 132.9 47 132.9 43C131 43 129.1 43 127.1 43C127.1 39 127.1 35.1 127.1 31C129.1 31 131 31 133 31C133 32.9 133 34.9 133 37C135 37 137 37 139 37C139 45.1 139 53.1 139 61C137 61 135 61 133.1 61C133.1 63.1 133.1 65 133.1 66.9C135.1 66.9 137 66.9 139 66.9C139 64.9 139 62.9 139 61C140.9 61 142.9 61 145 61C145 63 145 64.9 145 67C147.1 67 149.1 67 151.1 67C151.1 69 151.1 71 151.1 73C153.2 73 155.2 73 157.1 73C157.1 75 157.1 77 157.1 79C155.1 79 153.1 79 151.1 79C151.1 81.1 151.1 83.1 151.1 85C147.1 85 143.1 85 139.1 85C139.1 82.9 139.1 81 139.1 79C141.1 79 143.1 79 145 79C145 76.9 145 75 145 73.1C143 73.1 141.1 73.1 139.1 73.1C139.1 75.1 139.1 77.1 139.1 79C137.1 79 135.1 79 133.1 79C133.1 77 133.1 75 133.1 73C131 73 129.1 73 127.1 73C127 67 127 61 127 55Z" fill="black"/>
<path d="M49.0001 103C49.0001 105 49.0001 107 49.0001 109C47.0001 109 45.0001 109 43.0001 109C43.0001 111.1 43.0001 113.1 43.0001 115C41.0001 115 39.0001 115 37.0001 115C37.0001 117.1 37.0001 119.1 37.0001 121C35.0001 121 33.0001 121 31.0001 121C31.0001 117 31.0001 113.1 31.0001 109C33.0001 109 34.9001 109 36.9001 109C36.9001 107 36.9001 105.1 36.9001 103C31.0001 103 25.1001 103 19.0001 103C19.0001 100.9 19.0001 99 19.0001 97C17.0001 97 15.1001 97 13.1001 97C13.1001 95 13.1001 93.1 13.1001 91C17.0001 91 20.9001 91 25.0001 91C25.0001 92.9 25.0001 94.8 25.0001 96.8C29.0001 96.8 32.9001 96.8 37.0001 96.8C37.0001 94.9 37.0001 93 37.0001 91C39.0001 91 40.9001 91 43.0001 91C43.0001 94.9 43.0001 98.8 43.0001 103C45.0001 103 47.0001 103 49.0001 103Z" fill="black"/>
<path d="M43.0001 79C41.1001 79 39.1001 79 37.0001 79C37.0001 81 37.0001 82.9 37.0001 84.9C33.0001 84.9 29.0001 84.9 25.0001 84.9C25.0001 82.9 25.0001 80.9 25.0001 79C27.0001 79 28.9001 79 30.9001 79C30.9001 75 30.9001 71 30.9001 67C25.0001 67 19.1001 67 13.1001 67C13.1001 65 13.1001 63.1 13.1001 61C23.0001 61 32.9001 61 43.0001 61C43.0001 62.9 43.0001 64.8 43.0001 66.9C45.1001 66.9 47.0001 66.9 49.0001 66.9C49.0001 68.9 49.0001 71 49.1001 73C47.1001 73 45.1001 73 43.1001 73C43.0001 75.1 43.0001 77.1 43.0001 79Z" fill="black"/>
<path d="M49 133C45.1 133 41.1 133 37 133C37 135 37 136.9 37 138.9C34.9 138.9 33 138.9 31 138.9C31 137 31 135.1 31 133C29 133 27.1 133 25 133C25 128.9 25 125 25 121C27 121 29 121 30.9 121C30.9 123 30.9 125 30.9 126.9C33 126.9 34.9 126.9 36.9 126.9C36.9 124.9 36.9 122.9 36.9 121C38.9 121 40.9 121 42.9 121C42.9 118.9 42.9 116.9 42.9 115C44.9 115 46.9 115 48.9 115C48.9 117 48.9 118.9 48.9 121C52.9 121 56.9 121 60.9 121C60.9 123 60.9 124.9 60.9 127C57 127 53.1 127 48.9 127C49 129.1 49 131 49 133Z" fill="black"/>
<path d="M115 181C113.1 181 111.1 181 109 181C109 179 109 177.1 109 175.1C105 175.1 101 175.1 96.8999 175.1C96.8999 177.1 96.8999 179.1 96.8999 181C94.8999 181 92.9999 181 90.8999 181C90.8999 183 90.8999 185 90.8999 187C88.8999 187 86.9999 187 84.9999 187C84.9999 183.1 84.9999 179.2 84.9999 175.1C86.8999 175.1 88.7999 175.1 90.7999 175.1C90.7999 173.1 90.7999 171.2 90.7999 169.1C88.8999 169.1 86.9999 169.1 84.8999 169.1C84.8999 167 84.8999 165 84.8999 163C88.8999 163 92.8999 163 96.9999 163C96.9999 165.1 96.9999 167 96.9999 168.9C101 168.9 104.9 168.9 109 168.9C109 166.9 109 165 109 162.9C111.1 162.9 113 162.9 115 162.9C115 169 115 175 115 181Z" fill="black"/>
<path d="M132.9 181C132.9 182.9 132.9 184.9 132.9 186.9C126.9 186.9 121 186.9 114.9 186.9C114.9 184.9 114.9 182.9 114.9 181C116.9 181 118.9 181 121 181C121 176.9 121 173 121 169C127 169 132.9 169 139 169C139 171 139 172.9 139 175C141.1 175 143 175 145 175C145 178.9 145 182.9 145 186.9C143 186.9 141.1 186.9 139.1 186.9C139.1 185 139.1 183.1 139.1 181C136.8 181 134.9 181 132.9 181C132.9 179.1 132.9 177.1 132.9 175.1C130.8 175.1 128.9 175.1 127 175.1C127 177.1 127 179 127 181C129.1 181 131.1 181 132.9 181Z" fill="black"/>
<path d="M84.9999 55C84.9999 59 84.9999 63 84.9999 67C82.9999 67 80.9999 67 78.9999 67C78.9999 65 78.9999 63 78.9999 61.1C76.8999 61.1 74.9999 61.1 72.9999 61.1C72.9999 63.1 72.9999 65.1 72.9999 67C71.0999 67 69.0999 67 66.9999 67C66.9999 69 66.9999 70.9 66.9999 72.9C64.8999 72.9 62.9999 72.9 60.9999 72.9C60.9999 71 60.9999 69.1 60.9999 66.9C56.8999 66.9 52.8999 66.9 48.8999 66.9C48.8999 65 48.8999 63 48.8999 61C54.8999 61 60.8999 61 66.9999 61C66.9999 58.9 66.9999 56.9 66.9999 55C68.9999 55 70.9999 55 72.9999 55C72.9999 52.9 72.9999 50.9 72.9999 49C74.9999 49 76.9999 49 78.9999 49C78.9999 51 78.9999 53 78.9999 55C81.0999 55 83.0999 55 84.9999 55Z" fill="black"/>
<path d="M67.0001 55C65.1001 55 63.1001 55 61.1001 55C61.1001 51 61.1001 47.1 61.1001 43C63.0001 43 65.0001 43 67.0001 43C67.0001 41 67.0001 39.1 67.0001 37C65.1001 37 63.1001 37 61.1001 37C61.1001 34.9 61.1001 33 61.1001 31C67.1001 31 73.0001 31 79.0001 31C79.0001 33 79.0001 34.9 79.0001 36.9C77.1001 36.9 75.1001 36.9 73.0001 36.9C73.0001 41 73.0001 45 73.0001 49C71.0001 49 69.0001 49 67.0001 49C67.0001 51.1 67.0001 53.1 67.0001 55Z" fill="black"/>
<path d="M103 55C101 55 99.1 55 97 55C97 49 97 43 97 37C99 37 100.9 37 103 37C103 39 103 40.9 103 42.9C107 42.9 110.9 42.9 114.9 42.9C114.9 46.9 114.9 50.8 114.9 54.9C112.9 54.9 111 54.9 109 54.9C109 52.9 109 50.9 109 49C106.9 49 105 49 103 49C103 51.1 103 53.1 103 55Z" fill="black"/>
<path d="M19.0001 115C19.0001 122.9 19.0001 130.9 19.0001 138.9C17.0001 138.9 15.1001 138.9 13.1001 138.9C13.1001 131 13.1001 123.1 13.1001 115C15.1001 115 17.0001 115 19.0001 115Z" fill="black"/>
<path d="M133.1 18.9C129.1 18.9 125.2 18.9 121.1 18.9C121.1 20.9 121.1 22.9 121.1 24.9C119 24.9 117.1 24.9 115.1 24.9C115.1 21 115.1 17 115.1 13.1C121 13.1 126.9 13.1 133 13.1C132.9 15 132.9 17 133.1 18.9C132.9 19 133.1 18.9 133.1 18.9Z" fill="black"/>
<path d="M156.9 79C160.8 79 164.8 79 168.9 79C168.9 81 168.9 82.9 168.9 85C171 85 173 85 175 85C175 87 175 88.9 175 91C171 91 167 91 163 91C163 89 163 87 163 85C160.9 85 158.9 85 157 85C156.9 83 156.9 81 156.9 79Z" fill="black"/>
<path d="M174.9 109C174.9 115 174.9 121 174.9 127C172.9 127 170.9 127 168.8 127C168.8 122.9 168.8 119 168.8 115C166.7 115 164.8 115 162.8 115C162.8 113 162.8 111 162.8 109C166.9 109 170.9 109 174.9 109Z" fill="black"/>
<path d="M103 139C103 133 103 127 103 121C105 121 107 121 109.1 121C109.1 123.1 109.1 125 109.1 127C111.2 127 113.1 127 115.1 127C115.1 129.1 115.1 131 115.1 133C113.1 133 111.1 133 109.1 133C109.1 135.1 109.1 137 109.1 139C107 139 105 139 103 139Z" fill="black"/>
<path d="M103 19C105 19 106.9 19 109 19C109 23 109 27 109 31C105 31 101 31 97 31C97 29 97 27.1 97 25C98.9 25 100.8 25 103 25C103 22.9 103 21 103 19Z" fill="black"/>
<path d="M97.0001 139C93.1001 139 89.1001 139 85.1001 139C85.1001 135 85.1001 131.1 85.1001 127.1C87.0001 127.1 89.0001 127.1 91.0001 127.1C91.0001 129 91.0001 130.9 91.0001 133C93.0001 133 94.9001 133 97.0001 133C97.0001 135.1 97.0001 137 97.0001 139Z" fill="black"/>
<path d="M55 79C56.9 79 58.9 79 60.9 79C60.9 83 60.9 86.9 60.9 90.9C57 90.9 53.1 90.9 49 90.9C49 88.9 49 86.9 49 85C51 85 53 85 55 85C55 82.9 55 80.9 55 79Z" fill="black"/>
<path d="M97.0001 91C93.1001 91 89.1001 91 85.1001 91C85.1001 87 85.1001 83.1 85.1001 79.1C87.0001 79.1 89.0001 79.1 91.0001 79.1C91.0001 81 91.0001 82.9 91.0001 85C93.0001 85 94.9001 85 97.0001 85C97.0001 87.1 97.0001 89 97.0001 91Z" fill="black"/>
<path d="M97.0001 37C93.1001 37 89.1001 37 85.1001 37C85.1001 33 85.1001 29.1 85.1001 25.1C87.0001 25.1 88.9001 25.1 91.0001 25.1C91.0001 27 91.0001 29 91.0001 31.1C93.1001 31.1 95.1001 31.1 97.1001 31.1C97.0001 33 97.0001 35 97.0001 37Z" fill="black"/>
<path d="M79 49C79 47.1 79 45.1 79 43.1C83 43.1 86.9 43.1 90.9 43.1C90.9 47 90.9 50.9 90.9 55C88.9 55 86.9 55 85 55C85 53 85 51 85 49C82.9 49 80.9 49 79 49Z" fill="black"/>
<path d="M60.8999 103.1C62.8999 103.1 64.7999 103.1 66.8999 103.1C66.8999 105 66.8999 106.9 66.8999 109C68.9999 109 70.8999 109 72.8999 109C72.8999 111.1 72.8999 113 72.8999 115C68.9999 115 65.0999 115 60.8999 115C60.9999 111 60.9999 107 60.8999 103.1C60.9999 103 60.8999 103.1 60.8999 103.1Z" fill="black"/>
<path d="M103 19C97.1001 19 91.1001 19 85.1001 19C85.1001 17 85.1001 15.1 85.1001 13.1C91.0001 13.1 96.9001 13.1 103 13.1C103 15.1 103 17 103 19Z" fill="black"/>
<path d="M132.9 31C132.9 27 132.9 22.9 132.9 18.9C134.8 18.9 136.8 18.9 138.8 18.9C138.8 22.9 138.8 26.9 138.8 30.9C136.8 31 134.9 31 132.9 31Z" fill="black"/>
<path d="M115 79C115 77 115 75.1 115 73C119 73 123 73 127 73C127 75 127 77 127 79C123 79 119 79 115 79Z" fill="black"/>
<path d="M25.0001 79C21.1001 79 17.1001 79 13.1001 79C13.1001 77 13.1001 75.1 13.1001 73.1C17.0001 73.1 20.9001 73.1 25.0001 73.1C25.0001 75.1 25.0001 77 25.0001 79Z" fill="black"/>
<path d="M49 133C52.9 133 56.9 133 61 133C61 135 61 137 61 139.1C57.1 139.1 53.1 139.1 49 139.1C49 136.9 49 135 49 133Z" fill="black"/>
<path d="M79 67C79 70.9 79 74.9 79 78.9C77 78.9 75.1 78.9 73 78.9C73 74.9 73 70.9 73 67C75 67 77 67 79 67Z" fill="black"/>
<path d="M78.9 85.1C78.9 87.1 78.9 89 78.9 90.9C74.9 90.9 71 90.9 67 90.9C67 89 67 87.1 67 85.1C71 85.1 74.9 85.1 78.9 85.1Z" fill="black"/>
<path d="M109 31C112.9 31 116.9 31 120.9 31C120.9 33 120.9 34.9 120.9 36.9C117 36.9 113.1 36.9 109 36.9C109 34.9 109 33 109 31Z" fill="black"/>
<path d="M78.9001 24.9C76.9001 24.9 75.0001 24.9 73.1001 24.9C73.1001 20.9 73.1001 17.1 73.1001 13.1C75.0001 13.1 76.9001 13.1 78.9001 13.1C78.9001 17 78.9001 20.9 78.9001 24.9Z" fill="black"/>
<path d="M108.9 61.1C112.9 61.1 116.9 61.1 120.9 61.1C120.9 63 120.9 64.9 120.9 66.9C117 66.9 113.1 66.9 108.9 66.9C109 65 109 63 108.9 61.1C109 61 108.9 61.1 108.9 61.1Z" fill="black"/>
<path d="M49 103C49 101.1 49 99.1 49 97.1C53 97.1 56.9 97.1 60.9 97.1C60.9 99.1 60.9 101.1 60.9 103.1C57 103 53 103 49 103Z" fill="black"/>
<path d="M181.1 91C183.1 91 184.9 91 186.9 91C186.9 93 186.9 94.9 186.9 96.9C185 96.9 183.1 96.9 181.1 96.9C181.1 94.9 181.1 93 181.1 91Z" fill="black"/>
<path d="M174.9 85C174.9 83.1 174.9 81.1 174.9 79.1C176.9 79.1 178.8 79.1 180.8 79.1C180.8 81 180.8 82.9 180.8 85C178.8 85 176.9 85 174.9 85Z" fill="black"/>
<path d="M174.9 103C176.8 103 178.8 103 180.8 103C180.8 105 180.8 106.9 180.8 109C178.8 109 176.8 109 174.9 109C174.9 107 174.9 105 174.9 103Z" fill="black"/>
<path d="M19 115C19 113.1 19 111.1 19 109.1C21 109.1 22.9 109.1 24.9 109.1C24.9 111 24.9 112.9 24.9 115C22.9 115 21 115 19 115Z" fill="black"/>
<path d="M49 109C50.9 109 52.9 109 54.9 109C54.9 111 54.9 112.9 54.9 115C52.9 115 50.9 115 49 115C49 113 49 111 49 109Z" fill="black"/>
<path d="M97 115C95 115 93 115 91 115C91 113 91 111 91 109.1C93.1 109.1 95 109.1 97 109.1C97 111.1 97 113.1 97 115Z" fill="black"/>
<path d="M49 85C47 85 45.1 85 43 85C43 83 43 81 43 79C45 79 47 79 49 79C49 81 49 83 49 85Z" fill="black"/>
<path d="M91 115C91 116.9 91 118.9 91 120.9C89 120.9 87.1 120.9 85 120.9C85 118.9 85 116.9 85 115C87 115 89 115 91 115Z" fill="black"/>
<path d="M103 121C101 121 99.1 121 97 121C97 119 97 117 97 115C99 115 101 115 103 115C103 117 103 119 103 121Z" fill="black"/>
<path d="M49 73C51 73 52.9 73 55 73C55 75 55 77 55 79C53 79 51 79 49 79C49 77 49 75 49 73Z" fill="black"/>
<path d="M181.1 120.9C181.1 118.9 181.1 117 181.1 115C183 115 185 115 187 115C187 116.9 187 118.9 187 120.9C184.9 120.9 183.1 120.9 181.1 120.9Z" fill="black"/>
<path d="M73 127C73 125.1 73 123.1 73 121.1C75 121.1 76.9 121.1 78.9 121.1C78.9 123 78.9 124.9 78.9 127C76.9 127 75 127 73 127Z" fill="black"/>
<path d="M180.9 67C182.8 67 184.8 67 186.8 67C186.8 69 186.8 70.9 186.8 72.9C184.9 72.9 183 72.9 180.9 72.9C180.9 70.9 180.9 69 180.9 67Z" fill="black"/>
<path d="M162.9 67C162.9 68.9 162.9 70.9 162.9 73C160.9 73 158.9 73 156.9 73C156.9 71 156.9 69 156.9 67C158.9 67 160.9 67 162.9 67Z" fill="black"/>
<path d="M73.0001 127C73.0001 129 73.0001 131.1 73.0001 133.1C71.1001 133.1 69.1001 133.1 67.1001 133.1C67.1001 131.1 67.1001 129.1 67.1001 127.1C69.1001 127 71.0001 127 73.0001 127Z" fill="black"/>
<path d="M85 67C87 67 89 67 91 67C91 68.9 91 70.9 91 72.9C89 72.9 87.1 72.9 85 72.9C85 70.9 85 69 85 67Z" fill="black"/>
<path d="M180.9 67C179 67 177 67 175 67C175 65 175 63.1 175 61.1C176.9 61.1 178.8 61.1 180.9 61.1C180.9 63.1 180.9 65 180.9 67Z" fill="black"/>
<path d="M97 139C99 139 101 139 103 139C103 141 103 143 103 145C101 145 99 145 97 145C97 143 97 141 97 139Z" fill="black"/>
<path d="M162.9 67C162.9 65.1 162.9 63.1 162.9 61.1C164.9 61.1 166.8 61.1 168.8 61.1C168.8 63 168.8 64.9 168.8 67C166.8 67 164.9 67 162.9 67Z" fill="black"/>
<path d="M150.9 67C150.9 65.1 150.9 63.1 150.9 61.1C152.9 61.1 154.8 61.1 156.9 61.1C156.9 63.1 156.9 65.1 156.9 67C154.9 67 152.9 67 150.9 67Z" fill="black"/>
<path d="M91 67C91 65.1 91 63.1 91 61.1C93 61.1 94.9 61.1 96.9 61.1C96.9 63.1 96.9 65.1 96.9 67.1C95 67 93 67 91 67Z" fill="black"/>
<path d="M109 55C109 57 109 59.1 109 61.1C107.1 61.1 105.1 61.1 103 61.1C103 59 103 57 103 55C105 55 107 55 109 55Z" fill="black"/>
<path d="M127 55C125.1 55 123.1 55 121.1 55C121.1 53 121.1 51.1 121.1 49.1C123 49.1 124.9 49.1 127 49.1C127 51.1 127 53 127 55Z" fill="black"/>
<path d="M97 181C98.9 181 100.9 181 102.9 181C102.9 183 102.9 184.9 102.9 186.9C101 186.9 99.1 186.9 97 186.9C97 184.9 97 183 97 181Z" fill="black"/>
<path d="M67.0001 19.1C67.0001 21 67.0001 22.9 67.0001 24.9C65.0001 24.9 63.1001 24.9 61.1001 24.9C61.1001 23 61.1001 21.1 61.1001 19.1C63.0001 19.1 64.9001 19.1 67.0001 19.1Z" fill="black"/>
<path d="M174.9 181C174.9 182.9 174.9 184.9 174.9 186.9C172.9 186.9 171 186.9 168.9 186.9C168.9 184.9 168.9 182.9 168.9 181C170.9 181 172.9 181 174.9 181Z" fill="black"/>
<path d="M121 115C122.9 115 124.9 115 127 115C127 111 127 107.1 127 103C131.1 103 135.1 103 139.1 103C139.1 104.9 139.1 106.9 139.1 109C137.1 109 135.2 109 133.1 109C133.1 113.1 133.1 117.1 133.1 121.1C131.2 121.1 129.2 121.1 127.1 121.1C127.1 123.1 127.1 125 127.1 127C125 127 123.1 127 121 127C121 122.9 121 119 121 115Z" fill="black"/>
<path d="M103 145C105 145 106.9 145 109 145C109 143 109 141 109 139C111 139 113 139 115 139C115 143 115 146.9 115 151C113 151 111 151 109 151C109 153 109 154.9 109 156.9C105 156.9 101.1 156.9 96.8999 156.9C96.8999 154.9 96.8999 153 96.8999 151C98.8999 151 100.8 151 102.9 151C103 148.9 103 147 103 145Z" fill="black"/>
<path d="M115 139C115 137 115 135 115 133C116.9 133 118.9 133 120.9 133C120.9 135 120.9 136.9 120.9 139C118.9 139 117 139 115 139Z" fill="black"/>
<path d="M121 157C121 159 121 160.9 121 163C118.9 163 116.9 163 115 163C115 161 115 159.1 115 157C117.1 157 119 157 121 157Z" fill="black"/>
<path d="M145.1 145.1C147 145.1 148.9 145.1 150.9 145.1C150.9 147 150.9 148.9 150.9 151C149 151 147.1 151 145.1 151C145.1 149 145.1 147 145.1 145.1Z" fill="black"/>
<path d="M127 79C129 79 131 79 133 79C133 81 133 82.9 133 85C130.9 85 128.9 85 127 85C127 83 127 81 127 79Z" fill="black"/>
<path d="M42.9001 25.1C42.9001 31.1 42.9001 37 42.9001 42.9C36.9001 42.9 31.1001 42.9 25.1001 42.9C25.1001 37 25.1001 31.1 25.1001 25.1C31.0001 25.1 36.9001 25.1 42.9001 25.1Z" fill="black"/>
<path d="M174.8 42.9C168.8 42.9 162.9 42.9 157 42.9C157 36.9 157 31.1 157 25.1C162.9 25.1 168.8 25.1 174.8 25.1C174.8 31 174.8 36.9 174.8 42.9Z" fill="black"/>
<path d="M42.9001 157.1C42.9001 163.1 42.9001 169 42.9001 174.9C36.9001 174.9 31.1001 174.9 25.1001 174.9C25.1001 169 25.1001 163.1 25.1001 157.1C31.0001 157.1 36.9001 157.1 42.9001 157.1Z" fill="black"/>
</svg>
