<svg width="200" height="200" viewBox="0 0 200 200" fill="none" xmlns="http://www.w3.org/2000/svg">
<g clip-path="url(#clip0)">
<path d="M199.9 0H-0.100098V200H199.9V0Z" fill="white"/>
<path d="M107.6 155.1C105.9 155.1 104.1 155.1 102.3 155.1C102.3 149.8 102.3 144.6 102.3 139.4C105.8 139.4 109.2 139.4 112.9 139.4C112.9 141.2 112.9 142.9 112.9 144.6C114.7 144.6 116.4 144.6 118.2 144.6C118.2 141.1 118.2 137.7 118.2 134.1C120 134.1 121.7 134.1 123.4 134.1C123.4 132.3 123.4 130.6 123.4 128.8C114.6 128.8 105.9 128.8 97.1997 128.8C97.1997 127.1 97.1997 125.4 97.1997 123.5C93.6997 123.5 90.2997 123.5 86.6997 123.5C86.6997 121.6 86.6997 119.9 86.6997 118.1C93.5997 118.1 100.7 118.1 107.7 118.1C107.7 119.9 107.7 121.6 107.7 123.3C114.7 123.3 121.7 123.3 128.7 123.3C128.7 121.5 128.7 119.8 128.7 118.1C135.6 118.1 142.7 118.1 149.7 118.1C149.7 120 149.7 121.7 149.7 123.4C146.2 123.4 142.8 123.4 139.1 123.4C139.1 125.3 139.1 127 139.1 128.8C135.5 128.8 132.2 128.8 128.7 128.8C128.7 132.4 128.7 135.8 128.7 139.3C127 139.3 125.2 139.3 123.5 139.3C123.5 141.1 123.5 142.8 123.5 144.5C125.3 144.5 127 144.5 128.7 144.5C128.7 142.7 128.7 141 128.7 139.3C130.4 139.3 132.2 139.3 134.1 139.3C134.1 137.5 134.1 135.8 134.1 134.1C135.9 134.1 137.6 134.1 139.4 134.1C139.4 135.9 139.4 137.5 139.4 139.1C141.2 139.1 142.9 139.1 144.7 139.1C144.7 135.6 144.7 132.2 144.7 128.7C146.5 128.7 148.3 128.7 150 128.7C150 132.2 150 135.6 150 139.1C151.9 139.1 153.6 139.1 155.4 139.1C155.4 137.3 155.4 135.7 155.4 133.9C159 133.9 162.3 133.9 165.9 133.9C165.9 130.3 165.9 126.9 165.9 123.4C167.6 123.4 169.4 123.4 171.3 123.4C171.3 127 171.3 130.4 171.3 133.9C173.1 133.9 174.9 133.9 176.6 133.9C176.6 135.6 176.6 137.3 176.6 139.2C174.9 139.2 173.2 139.2 171.3 139.2C171.3 141.1 171.3 142.8 171.3 144.6C169.6 144.6 167.8 144.6 166.1 144.6C166.1 148.2 166.1 151.6 166.1 155C167.9 155 169.6 155 171.3 155C171.3 151.4 171.3 148.1 171.3 144.6C173 144.6 174.7 144.6 176.6 144.6C176.6 146.4 176.6 148.1 176.6 149.9C178.5 149.9 180.2 149.9 182 149.9C182 151.6 182 153.3 182 155.2C183.8 155.2 185.5 155.2 187.2 155.2C187.2 160.6 187.2 165.7 187.2 171C183.7 171 180.3 171 176.8 171C176.8 167.5 176.8 164.1 176.8 160.6C173.2 160.6 169.8 160.6 166.3 160.6C166.3 162.4 166.3 164 166.3 165.8C168.1 165.8 169.8 165.8 171.5 165.8C171.5 167.7 171.5 169.4 171.5 171.1C168 171.1 164.6 171.1 161 171.1C161 169.4 161 167.7 161 165.8C153.8 165.8 146.9 165.8 140 165.8C140 164.1 140 162.4 140 160.5C133 160.5 126 160.5 119 160.5C119 156.9 119 153.5 119 150C115.4 150 112.1 150 108.5 150C107.4 151.8 107.4 153.4 107.6 155.1C107.4 155.2 107.6 155.1 107.6 155.1ZM133.7 150C130.2 150 126.8 150 123.3 150C123.3 151.8 123.3 153.5 123.3 155.2C126.8 155.2 130.2 155.2 133.7 155.2C133.7 153.3 133.7 151.7 133.7 150C135.4 150 137.2 150 138.9 150C138.9 148.2 138.9 146.5 138.9 144.8C137.1 144.8 135.4 144.8 133.7 144.8C133.7 146.6 133.7 148.3 133.7 150ZM159.9 160.4C159.9 155.1 159.9 150 159.9 144.8C154.6 144.8 149.5 144.8 144.2 144.8C144.2 150.1 144.2 155.2 144.2 160.4C149.5 160.4 154.7 160.4 159.9 160.4Z" fill="black"/>
<path d="M86.3997 118.4C84.6997 118.4 82.9997 118.4 81.0997 118.4C81.0997 120.2 81.0997 121.9 81.0997 123.6C79.2997 123.6 77.5997 123.6 75.8997 123.6C75.8997 120.2 75.8997 116.8 75.8997 113.2C77.5997 113.2 79.2997 113.2 80.8997 113.2C80.8997 111.4 80.8997 109.7 80.8997 107.9C79.1997 107.9 77.4997 107.9 75.6997 107.9C75.6997 106 75.6997 104.3 75.6997 102.5C79.1997 102.5 82.5997 102.5 86.2997 102.5C86.2997 104.3 86.2997 106 86.2997 107.7C89.8997 107.7 93.2997 107.7 96.7997 107.7C96.7997 105.9 96.7997 104.3 96.7997 102.5C98.5997 102.5 100.3 102.5 102 102.5C102 100.6 102 98.9 102 97.2C103.7 97.2 105.5 97.2 107.4 97.2C107.4 99.1 107.4 100.8 107.4 102.4C109.2 102.4 110.9 102.4 112.7 102.4C112.7 100.6 112.7 98.9 112.7 97.4C114.5 97.4 116.2 97.4 118 97.4C118 99.2 118 100.8 118 102.4C121.6 102.4 124.9 102.4 128.4 102.4C128.4 100.6 128.4 99 128.4 97.2C126.6 97.2 124.9 97.2 123.1 97.2C123.1 95.4 123.1 93.7 123.1 91.9C121.3 91.9 119.6 91.9 117.8 91.9C117.8 90.1 117.8 88.4 117.8 86.7C116 86.7 114.3 86.7 112.5 86.7C112.5 88.5 112.5 90.1 112.5 91.9C108.9 91.9 105.6 91.9 102.1 91.9C102.1 93.8 102.1 95.5 102.1 97.2C96.7997 97.2 91.5997 97.2 86.2997 97.2C86.2997 95.3 86.2997 93.6 86.2997 91.9C87.9997 91.9 89.7997 91.9 91.6997 91.9C91.6997 90 91.6997 88.3 91.6997 86.5C93.4997 86.5 95.1997 86.5 96.9997 86.5C96.9997 84.7 96.9997 82.9 96.9997 81.2C98.7997 81.2 100.6 81.2 102.3 81.2C102.3 82.9 102.3 84.7 102.3 86.4C104.2 86.4 105.9 86.4 107.6 86.4C107.6 84.6 107.6 82.9 107.6 81.2C109.3 81.2 111 81.2 112.9 81.2C112.9 79.4 112.9 77.7 112.9 75.9C114.8 75.9 116.5 75.9 118.3 75.9C118.3 77.6 118.3 79.4 118.3 81.2C122 81.2 125.5 81.2 128.8 81.2C128.8 84.7 128.8 88.1 128.8 91.8C132.4 91.8 135.8 91.8 139.3 91.8C139.3 93.6 139.3 95.3 139.3 97C141.1 97 142.8 97 144.6 97C144.6 93.5 144.6 90.1 144.6 86.6C146.4 86.6 148.2 86.6 149.9 86.6C149.9 88.3 149.9 90 149.9 91.9C151.7 91.9 153.4 91.9 155.2 91.9C155.2 93.8 155.2 95.5 155.2 97.3C153.5 97.3 151.7 97.3 149.9 97.3C149.9 99.2 149.9 100.9 149.9 102.6C148.2 102.6 146.4 102.6 144.6 102.6C144.6 104.5 144.6 106.2 144.6 107.9C139.3 107.9 134.1 107.9 128.8 107.9C128.8 111.6 128.8 115.1 128.8 118.4C127.1 118.4 125.3 118.4 123.4 118.4C123.4 116.6 123.4 114.9 123.4 113.1C121.6 113.1 119.9 113.1 118.1 113.1C118.1 111.3 118.1 109.6 118.1 107.9C114.5 107.9 111.1 107.9 107.6 107.9C107.6 109.7 107.6 111.3 107.6 113.1C100.6 113.1 93.5997 113.1 86.5997 113.1C86.3997 115 86.3997 116.7 86.3997 118.4Z" fill="black"/>
<path d="M75.8999 102.6C74.1999 102.6 72.4999 102.6 70.5999 102.6C70.5999 104.4 70.5999 106.1 70.5999 107.9C68.6999 107.9 66.9999 107.9 65.1999 107.9C65.1999 104.4 65.1999 101 65.1999 97.3C63.2999 97.3 61.5999 97.3 59.8999 97.3C59.8999 95.5 59.8999 93.7 59.8999 92C61.5999 92 63.3999 92 65.2999 92C65.2999 90.1 65.2999 88.4 65.2999 86.6C70.6999 86.6 75.7999 86.6 80.9999 86.6C80.9999 84.8 80.9999 83.1 80.9999 81.3C79.1999 81.3 77.4999 81.3 75.7999 81.3C75.7999 77.7 75.7999 74.4 75.7999 70.8C77.5999 70.8 79.2999 70.8 80.9999 70.8C80.9999 72.5 80.9999 74.3 80.9999 76C84.5999 76 87.9999 76 91.3999 76C91.3999 74.2 91.3999 72.5 91.3999 70.8C87.7999 70.8 84.4999 70.8 80.9999 70.8C80.9999 69.1 80.9999 67.3 80.9999 65.4C79.1999 65.4 77.4999 65.4 75.6999 65.4C75.6999 63.6 75.6999 61.8 75.6999 60.1C77.3999 60.1 79.0999 60.1 80.9999 60.1C80.9999 58.3 80.9999 56.6 80.9999 54.8C82.7999 54.8 84.4999 54.8 86.2999 54.8C86.2999 51.2 86.2999 47.9 86.2999 44.3C88.1999 44.3 89.8999 44.3 91.6999 44.3C91.6999 47.8 91.6999 51.2 91.6999 54.7C97.0999 54.7 102.2 54.7 107.6 54.7C107.6 51.2 107.6 47.8 107.6 44.4C109.4 44.4 111.1 44.4 112.9 44.4C112.9 46.2 112.9 47.9 112.9 49.6C114.8 49.6 116.5 49.6 118.2 49.6C118.2 51.4 118.2 53.2 118.2 54.9C116.5 54.9 114.7 54.9 112.9 54.9C112.9 56.8 112.9 58.5 112.9 60.2C111.2 60.2 109.5 60.2 107.6 60.2C107.6 62 107.6 63.7 107.6 65.5C105.8 65.5 104.1 65.5 102.3 65.5C102.3 67.3 102.3 69 102.3 70.8C100.5 70.8 98.7999 70.8 96.8999 70.8C96.8999 74.4 96.8999 78 96.8999 81.4C93.3999 81.4 89.9999 81.4 86.3999 81.4C86.3999 85.1 86.3999 88.6 86.3999 91.9C82.8999 91.9 79.4999 91.9 75.8999 91.9C75.8999 95.7 75.8999 99.2 75.8999 102.6ZM86.4999 60.7C86.4999 62.5 86.4999 64.2 86.4999 65.7C90.0999 65.7 93.3999 65.7 96.7999 65.7C96.7999 63.9 96.7999 62.3 96.7999 60.7C93.3999 60.7 89.9999 60.7 86.4999 60.7Z" fill="black"/>
<path d="M186.2 49.9C174 49.9 161.8 49.9 149.6 49.9C149.6 37.7 149.6 25.5 149.6 13.3C161.8 13.3 174 13.3 186.2 13.3C186.2 25.5 186.2 37.6 186.2 49.9ZM154.9 44.7C163.7 44.7 172.4 44.7 181 44.7C181 36 181 27.2 181 18.6C172.3 18.6 163.5 18.6 154.9 18.6C154.9 27.3 154.9 35.9 154.9 44.7Z" fill="black"/>
<path d="M12.8999 13.3C25.0999 13.3 37.2999 13.3 49.4999 13.3C49.4999 25.5 49.4999 37.7 49.4999 49.9C37.2999 49.9 25.0999 49.9 12.8999 49.9C12.8999 37.7 12.8999 25.6 12.8999 13.3ZM18.0999 44.7C26.8999 44.7 35.5999 44.7 44.1999 44.7C44.1999 36 44.1999 27.2 44.1999 18.6C35.4999 18.6 26.6999 18.6 18.0999 18.6C18.0999 27.3 18.0999 35.9 18.0999 44.7Z" fill="black"/>
<path d="M49.4999 186.7C37.1999 186.7 25.0999 186.7 12.8999 186.7C12.8999 174.5 12.8999 162.3 12.8999 150.1C25.0999 150.1 37.2999 150.1 49.4999 150.1C49.4999 162.3 49.4999 174.5 49.4999 186.7ZM44.1999 181.4C44.1999 172.6 44.1999 163.9 44.1999 155.3C35.4999 155.3 26.6999 155.3 18.0999 155.3C18.0999 164 18.0999 172.8 18.0999 181.4C26.8999 181.4 35.4999 181.4 44.1999 181.4Z" fill="black"/>
<path d="M17.9998 65.8C16.2998 65.8 14.5998 65.8 12.7998 65.8C12.7998 62.3 12.7998 58.9 12.7998 55.4C21.4998 55.4 30.1998 55.4 38.9998 55.4C38.9998 60.7 38.9998 65.9 38.9998 71.1C37.2998 71.1 35.4998 71.1 33.7998 71.1C33.7998 74.7 33.7998 78.1 33.7998 81.6C37.3998 81.6 40.6998 81.6 44.1998 81.6C44.1998 83.3 44.1998 85.1 44.1998 87C45.9998 87 47.6998 87 49.3998 87C49.3998 88.8 49.3998 90.5 49.3998 92.3C47.5998 92.3 45.8998 92.3 44.1998 92.3C44.1998 94.2 44.1998 95.9 44.1998 97.6C40.6998 97.6 37.1998 97.6 33.6998 97.6C33.6998 94.1 33.6998 90.7 33.6998 87.1C31.7998 87.1 30.1998 87.1 28.3998 87.1C28.3998 85.3 28.3998 83.6 28.3998 81.7C26.4998 81.7 24.7998 81.7 22.9998 81.7C22.9998 80 22.9998 78.3 22.9998 76.4C24.6998 76.4 26.3998 76.4 28.2998 76.4C28.2998 72.8 28.2998 69.5 28.2998 65.9C30.0998 65.9 31.7998 65.9 33.4998 65.9C33.4998 64.1 33.4998 62.4 33.4998 60.6C28.2998 60.6 23.1998 60.6 17.7998 60.6C17.9998 62.3 17.9998 64.1 17.9998 65.8Z" fill="black"/>
<path d="M96.8999 18.5C96.8999 16.8 96.8999 15.1 96.8999 13.3C110.9 13.3 124.9 13.3 138.9 13.3C138.9 15 138.9 16.7 138.9 18.5C133.7 18.5 128.5 18.5 123.3 18.5C123.3 20.3 123.3 22 123.3 23.8C125 23.8 126.7 23.8 128.5 23.8C128.5 25.7 128.5 27.4 128.5 29.2C126.8 29.2 125 29.2 123.2 29.2C123.2 31.1 123.2 32.8 123.2 34.5C121.5 34.5 119.7 34.5 117.9 34.5C117.9 36.4 117.9 38.1 117.9 39.8C114.4 39.8 111 39.8 107.4 39.8C107.4 37.9 107.4 36.2 107.4 34.5C109.1 34.5 110.9 34.5 112.7 34.5C112.7 30.8 112.7 27.5 112.7 24C114.4 24 116.2 24 117.9 24C117.9 22.2 117.9 20.5 117.9 18.8C116.1 18.8 114.4 18.8 112.7 18.8C112.7 20.6 112.7 22.3 112.7 24C111 24 109.2 24 107.3 24C107.3 22.1 107.3 20.4 107.3 18.7C103.8 18.5 100.4 18.5 96.8999 18.5Z" fill="black"/>
<path d="M76 144.6C71.6 144.6 67.1 144.6 62.6 144.7C61.9 144.7 61.1 144.7 60.3 144.7C60.3 146.4 60.3 148.1 60.3 150C62 150 63.7 150 65.3 150C65.3 151.8 65.3 153.5 65.3 155.2C61.9 155.2 58.5 155.2 54.9 155.2C54.9 151.8 54.9 148.4 54.9 144.8C51.3 144.8 48 144.8 44.5 144.8C44.5 143 44.5 141.3 44.5 139.5C51.4 139.5 58.4 139.5 65.3 139.5C65.3 137.7 65.3 136 65.3 134.2C61.9 134.2 58.5 134.2 55 134.2C55 132.4 55 130.7 55 128.9C56.7 128.9 58.3 128.9 60 128.9C60 127.1 60 125.4 60 123.6C61.8 123.6 63.5 123.6 65.3 123.6C65.3 125.3 65.3 126.9 65.3 128.8C70.6 128.8 75.7 128.8 81.1 128.8C81.1 130.6 81.1 132.3 81.1 134.1C79.4 134.1 77.8 134.1 75.9 134.1C75.9 137.7 75.9 141.2 76 144.6C75.9 144.7 76 144.6 76 144.6Z" fill="black"/>
<path d="M154.8 60.6C154.8 65.9 154.8 71.1 154.8 76.4C153.1 76.4 151.3 76.4 149.5 76.4C149.5 78.3 149.5 80 149.5 81.7C147.8 81.7 146 81.7 144.1 81.7C144.1 79.9 144.1 78.2 144.1 76.5C140.5 76.5 137.2 76.5 133.6 76.5C133.6 78.3 133.6 80 133.6 81.7C131.8 81.7 130 81.7 128.3 81.7C128.3 80 128.3 78.2 128.3 76.4C124.6 76.4 121.1 76.4 117.8 76.4C117.8 74.7 117.8 73 117.8 71.1C121.3 71.1 124.7 71.1 128.2 71.1C128.2 69.3 128.2 67.6 128.2 65.8C130.1 65.8 131.8 65.8 133.6 65.8C133.6 67.5 133.6 69.2 133.6 71C137.2 71 140.5 71 144.1 71C144.1 69.3 144.1 67.6 144.1 65.8C145.9 65.8 147.6 65.8 149.5 65.8C149.5 63.9 149.5 62.2 149.5 60.4C151.3 60.6 153 60.6 154.8 60.6Z" fill="black"/>
<path d="M165.3 102.6C167 102.6 168.7 102.6 170.6 102.6C170.6 106.2 170.6 109.6 170.6 113.1C168.9 113.1 167.1 113.1 165.3 113.1C165.3 116.8 165.3 120.3 165.3 123.6C163.6 123.6 161.8 123.6 159.9 123.6C159.9 125.5 159.9 127.2 159.9 128.9C156.3 128.9 152.9 128.9 149.4 128.9C149.4 127.1 149.4 125.3 149.4 123.6C151.1 123.6 152.9 123.6 154.8 123.6C154.8 121.7 154.8 120 154.8 118.2C156.6 118.2 158.3 118.2 160 118.2C160 116.4 160 114.7 160 112.9C154.7 112.9 149.6 112.9 144.3 112.9C144.3 111.1 144.3 109.3 144.3 107.6C146 107.6 147.8 107.6 149.6 107.6C149.6 105.7 149.6 104 149.6 102.3C151.4 102.3 153.2 102.3 154.9 102.3C154.9 104 154.9 105.8 154.9 107.5C158.5 107.5 161.9 107.5 165.4 107.5C165.3 106 165.3 104.3 165.3 102.6Z" fill="black"/>
<path d="M96.9 39.5C96.9 37.8 96.9 36.1 96.9 34.2C89.9 34.2 82.9 34.2 76 34.2C76 30.6 76 27.3 76 23.6C77.7 23.6 79.5 23.6 81.2 23.6C81.2 25.3 81.2 27 81.2 28.9C84.8 28.9 88.1 28.9 91.7 28.9C91.7 25.5 91.7 22.1 91.7 18.5C93.6 18.5 95.3 18.5 97.1 18.5C97.1 20.2 97.1 22 97.1 23.9C99 23.9 100.7 23.9 102.5 23.9C102.5 25.7 102.5 27.4 102.5 29.2C104.3 29.2 106 29.2 107.7 29.2C107.7 31.1 107.7 32.8 107.7 34.5C106 34.5 104.2 34.5 102.3 34.5C102.3 36.4 102.3 38.1 102.3 39.8C100.3 39.5 98.6 39.5 96.9 39.5Z" fill="black"/>
<path d="M70.5997 171C68.8997 171 67.1997 171 65.2997 171C65.2997 174.6 65.2997 177.9 65.2997 181.5C63.4997 181.5 61.7997 181.5 59.9997 181.5C59.9997 183.3 59.9997 185 59.9997 186.8C58.1997 186.8 56.4997 186.8 54.6997 186.8C54.6997 178.1 54.6997 169.4 54.6997 160.7C59.8997 160.7 64.9997 160.7 70.3997 160.7C70.5997 164.1 70.5997 167.5 70.5997 171Z" fill="black"/>
<path d="M107.4 160.5C107.4 162.2 107.4 163.9 107.4 165.8C112.7 165.8 117.9 165.8 123.2 165.8C123.2 167.6 123.2 169.3 123.2 171.1C118 171.1 112.9 171.1 107.5 171.1C107.5 172.9 107.5 174.6 107.5 176.4C105.7 176.4 104 176.4 102.2 176.4C102.2 174.7 102.2 173 102.2 171.1C100.3 171.1 98.5998 171.1 96.7998 171.1C96.7998 169.4 96.7998 167.7 96.7998 165.8C93.2998 165.8 89.8998 165.8 86.2998 165.8C86.2998 163.9 86.2998 162.2 86.2998 160.4C93.4998 160.5 100.4 160.5 107.4 160.5Z" fill="black"/>
<path d="M75.8996 50C75.8996 53.5 75.8996 57 75.8996 60.5C74.0996 60.5 72.2996 60.5 70.5996 60.5C70.5996 58.8 70.5996 57 70.5996 55.3C68.7996 55.3 67.0996 55.3 65.2996 55.3C65.2996 57.1 65.2996 58.8 65.2996 60.5C61.7996 60.5 58.3996 60.5 54.6996 60.5C54.6996 62.3 54.6996 64 54.6996 65.8C52.8996 65.8 51.0996 65.8 49.3996 65.8C49.3996 64.1 49.3996 62.4 49.3996 60.5C47.5996 60.5 45.8996 60.5 44.0996 60.5C44.0996 58.7 44.0996 57 44.0996 55.2C49.2996 55.2 54.3996 55.2 59.8996 55.2C59.8996 53.3 59.8996 51.6 59.8996 49.8C61.5996 49.8 63.3996 49.8 65.1996 49.8C65.1996 47.9 65.1996 46.2 65.1996 44.5C66.9996 44.5 68.7996 44.5 70.4996 44.5C70.4996 46.2 70.4996 48 70.4996 49.8C72.4996 50 74.1996 50 75.8996 50Z" fill="black"/>
<path d="M86.3998 160.5C84.6998 160.5 82.9998 160.5 81.0998 160.5C81.0998 162.3 81.0998 164 81.0998 165.7C79.2998 165.7 77.5998 165.7 75.7998 165.7C75.7998 162.2 75.7998 158.9 75.7998 155.3C77.4998 155.3 79.1998 155.3 80.9998 155.3C80.9998 153.5 80.9998 151.8 80.9998 150C79.2998 150 77.5998 150 75.7998 150C75.7998 148.1 75.7998 146.4 75.7998 144.6C80.9998 144.6 86.1998 144.6 91.5998 144.6C91.5998 146.4 91.5998 148.1 91.5998 149.9C93.3998 149.9 95.0998 149.9 96.7998 149.9C96.7998 151.7 96.7998 153.4 96.7998 155.2C93.3998 155.2 89.9998 155.2 86.3998 155.2C86.3998 157 86.3998 158.8 86.3998 160.5Z" fill="black"/>
<path d="M133.7 39.5C133.7 44.8 133.7 49.9 133.7 55.3C130.1 55.3 126.7 55.3 123.2 55.3C123.2 53.5 123.2 51.7 123.2 50C124.9 50 126.7 50 128.4 50C128.4 48.2 128.4 46.5 128.4 44.8C126.6 44.8 124.9 44.8 123.2 44.8C123.2 46.6 123.2 48.3 123.2 50C121.4 50 119.6 50 117.9 50C117.9 46.5 117.9 43 117.9 39.5C119.6 39.5 121.4 39.5 123.2 39.5C123.2 37.6 123.2 35.9 123.2 34.2C125 34.2 126.8 34.2 128.5 34.2C128.5 35.9 128.5 37.7 128.5 39.5C130.4 39.5 132.1 39.5 133.7 39.5Z" fill="black"/>
<path d="M65.3996 107.9C65.3996 109.7 65.3996 111.5 65.3996 113.2C63.6996 113.2 61.9996 113.2 60.0996 113.2C60.0996 115 60.0996 116.7 60.0996 118.5C58.1996 118.5 56.4996 118.5 54.6996 118.5C54.6996 115 54.6996 111.6 54.6996 108C52.7996 108 51.0996 108 49.3996 108C49.3996 106.3 49.3996 104.5 49.3996 102.7C47.4996 102.7 45.7996 102.7 44.0996 102.7C44.0996 100.9 44.0996 99.1 44.0996 97.4C47.5996 97.4 50.9996 97.4 54.6996 97.4C54.6996 99.2 54.6996 100.9 54.6996 102.7C56.4996 102.7 58.1996 102.7 59.9996 102.7C59.9996 104.5 59.9996 106.2 59.9996 108C61.9996 107.9 63.6996 107.9 65.3996 107.9Z" fill="black"/>
<path d="M144.3 181.5C144.3 183.2 144.3 184.9 144.3 186.7C139 186.7 133.9 186.7 128.6 186.7C128.6 185 128.6 183.3 128.6 181.5C125 181.5 121.7 181.5 118.1 181.5C118.1 179.7 118.1 178 118.1 176.2C121.6 176.2 124.9 176.2 128.5 176.2C128.5 174.4 128.5 172.7 128.5 170.9C130.4 170.9 132.1 170.9 133.9 170.9C133.9 174.4 133.9 177.8 133.9 181.4C137.3 181.5 140.8 181.5 144.3 181.5Z" fill="black"/>
<path d="M60.0999 50C58.3999 50 56.6999 50 54.8999 50C54.8999 46.5 54.8999 43.1 54.8999 39.5C56.5999 39.5 58.2999 39.5 60.0999 39.5C60.0999 37.7 60.0999 36 60.0999 34.2C58.3999 34.2 56.6999 34.2 54.8999 34.2C54.8999 32.4 54.8999 30.7 54.8999 28.9C60.1999 28.9 65.2999 28.9 70.5999 28.9C70.5999 30.6 70.5999 32.3 70.5999 34.1C68.8999 34.1 67.1999 34.1 65.2999 34.1C65.2999 37.7 65.2999 41.3 65.2999 44.7C63.5999 44.7 61.7999 44.7 59.9999 44.7C60.0999 46.7 60.0999 48.3 60.0999 50Z" fill="black"/>
<path d="M28.3997 123.6C28.3997 125.3 28.3997 127.1 28.3997 128.9C31.9997 128.9 35.2997 128.9 38.8997 128.9C38.8997 130.7 38.8997 132.4 38.8997 134.2C37.1997 134.2 35.5997 134.2 33.6997 134.2C33.6997 136.1 33.6997 137.8 33.6997 139.6C31.9997 139.6 30.2997 139.6 28.3997 139.6C28.3997 141.4 28.3997 143.1 28.3997 144.9C26.5997 144.9 24.8997 144.9 23.1997 144.9C23.1997 138 23.1997 131.1 23.1997 123.9C25.0997 123.7 26.7997 123.7 28.3997 123.6C28.4997 123.7 28.3997 123.6 28.3997 123.6Z" fill="black"/>
<path d="M44.2999 118.4C42.5999 118.4 40.8999 118.4 38.9999 118.4C38.9999 120.2 38.9999 121.9 38.9999 123.7C35.2999 123.7 31.7999 123.7 28.3999 123.7C28.3999 120.2 28.3999 116.8 28.3999 113.3C30.1999 113.3 31.8999 113.3 33.6999 113.3C33.6999 111.5 33.6999 109.8 33.6999 108C35.5999 108 37.2999 108 39.0999 108C39.0999 109.7 39.0999 111.5 39.0999 113.3C40.9999 113.3 42.6999 113.3 44.3999 113.3C44.2999 114.9 44.2999 116.6 44.2999 118.4Z" fill="black"/>
<path d="M170.6 76.3C170.6 78 170.6 79.7 170.6 81.6C165.3 81.6 160.1 81.6 154.8 81.6C154.8 79.8 154.8 78 154.8 76.3C156.5 76.3 158.2 76.3 160.1 76.3C160.1 72.8 160.1 69.4 160.1 65.8C163.7 65.8 167.1 65.8 170.7 65.8C170.7 67.6 170.7 69.4 170.7 71.1C169 71.1 167.2 71.1 165.5 71.1C165.5 73 165.5 74.7 165.5 76.4C167.2 76.3 168.9 76.3 170.6 76.3Z" fill="black"/>
<path d="M144.3 176.3C146 176.3 147.7 176.3 149.6 176.3C149.6 174.5 149.6 172.8 149.6 171.1C151.4 171.1 153.1 171.1 154.9 171.1C154.9 174.5 154.9 177.9 154.9 181.5C156.7 181.5 158.4 181.5 160.2 181.5C160.2 183.3 160.2 185 160.2 186.8C156.7 186.8 153.4 186.8 149.8 186.8C149.8 185.1 149.8 183.4 149.8 181.5C147.9 181.5 146.2 181.5 144.4 181.5C144.3 179.7 144.3 178.1 144.3 176.3Z" fill="black"/>
<path d="M18 113.1C18 109.6 18 106.1 18 102.6C19.7 102.6 21.4 102.6 23.3 102.6C23.3 100.8 23.3 99.1 23.3 97.3C27 97.3 30.5 97.3 33.9 97.3C33.9 99 33.9 100.7 33.9 102.6C32.1 102.6 30.4 102.6 28.6 102.6C28.6 104.4 28.6 106.1 28.6 107.9C26.8 107.9 25.1 107.9 23.3 107.9C23.3 109.7 23.3 111.4 23.3 113.2C21.5 113.1 19.7 113.1 18 113.1Z" fill="black"/>
<path d="M170.6 65.8C170.6 64 170.6 62.2 170.6 60.5C172.3 60.5 174 60.5 175.9 60.5C175.9 58.7 175.9 57 175.9 55.3C177.7 55.3 179.4 55.3 181.2 55.3C181.2 57 181.2 58.7 181.2 60.5C183 60.5 184.7 60.5 186.5 60.5C186.5 62.3 186.5 64 186.5 65.8C184.8 65.8 183.1 65.8 181.3 65.8C181.3 67.6 181.3 69.3 181.3 71.1C179.4 71.1 177.7 71.1 175.9 71.1C175.9 69.4 175.9 67.6 175.9 65.8C173.9 65.8 172.3 65.8 170.6 65.8Z" fill="black"/>
<path d="M23.2999 81.6C23.2999 85.1 23.2999 88.5 23.2999 92C19.7999 92 16.3999 92 12.8999 92C12.8999 86.8 12.8999 81.6 12.8999 76.4C14.5999 76.4 16.2999 76.4 18.0999 76.4C18.0999 78.1 18.0999 79.8 18.0999 81.6C19.7999 81.6 21.5999 81.6 23.2999 81.6Z" fill="black"/>
<path d="M128.5 29C130.2 29 131.9 29 133.8 29C133.8 27.2 133.8 25.5 133.8 23.8C135.6 23.8 137.3 23.8 139.1 23.8C139.1 25.5 139.1 27.2 139.1 29C140.9 29 142.6 29 144.4 29C144.4 30.8 144.4 32.5 144.4 34.3C142.7 34.3 141 34.3 139.1 34.3C139.1 36.2 139.1 37.9 139.1 39.7C137.3 39.7 135.5 39.7 133.8 39.7C133.8 38 133.8 36.2 133.8 34.4C131.9 34.4 130.2 34.4 128.5 34.4C128.5 32.5 128.5 30.8 128.5 29Z" fill="black"/>
<path d="M70.5996 171C74.0996 171 77.4996 171 80.9996 171C80.9996 172.7 80.9996 174.4 80.9996 176.2C79.2996 176.2 77.6996 176.2 75.9996 176.2C75.9996 179.7 75.9996 183.1 75.9996 186.7C74.1996 186.7 72.4996 186.7 70.5996 186.7C70.5996 181.4 70.5996 176.3 70.5996 171Z" fill="black"/>
<path d="M175.8 97.4C177.5 97.4 179.2 97.4 181.1 97.4C181.1 99.1 181.1 100.8 181.1 102.7C182.9 102.7 184.6 102.7 186.4 102.7C186.4 104.5 186.4 106.2 186.4 108C184.7 108 183 108 181.2 108C181.2 109.8 181.2 111.5 181.2 113.3C179.3 113.3 177.6 113.3 175.8 113.3C175.8 107.9 175.8 102.6 175.8 97.4Z" fill="black"/>
<path d="M175.8 118.4C177.5 118.4 179.2 118.4 181.1 118.4C181.1 120.1 181.1 121.8 181.1 123.7C182.9 123.7 184.6 123.7 186.4 123.7C186.4 125.5 186.4 127.2 186.4 129C184.7 129 183 129 181.2 129C181.2 130.8 181.2 132.5 181.2 134.3C179.3 134.3 177.6 134.3 175.8 134.3C175.8 128.9 175.8 123.7 175.8 118.4Z" fill="black"/>
<path d="M17.8999 144.6C16.0999 144.6 14.4999 144.6 12.8999 144.6C12.8999 137.7 12.8999 130.7 12.8999 123.8C14.5999 123.8 16.2999 123.8 17.8999 123.8C17.8999 130.7 17.8999 137.6 17.8999 144.6Z" fill="black"/>
<path d="M175.8 181.5C172.3 181.5 169 181.5 165.4 181.5C165.4 179.8 165.4 178.1 165.4 176.3C167.1 176.3 168.8 176.3 170.6 176.3C170.6 174.4 170.6 172.7 170.6 170.9C172.4 170.9 174.2 170.9 175.9 170.9C175.8 174.5 175.8 178.1 175.8 181.5Z" fill="black"/>
<path d="M175.9 92.2C175.9 88.7 175.9 85.3 175.9 81.7C179.4 81.7 182.7 81.7 186.2 81.7C186.2 83.4 186.2 85.1 186.2 86.9C184.5 86.9 182.8 86.9 181 86.9C181 88.7 181 90.4 181 92.3C179.3 92.1 177.6 92.1 175.9 92.2C175.8 92.1 175.9 92.2 175.9 92.2Z" fill="black"/>
<path d="M123.2 55.3C123.2 58.8 123.2 62.2 123.2 65.7C119.7 65.7 116.3 65.7 112.7 65.7C112.7 64 112.7 62.2 112.7 60.5C114.4 60.5 116.2 60.5 118 60.5C118 58.6 118 56.9 118 55.2C119.8 55.3 121.4 55.3 123.2 55.3Z" fill="black"/>
<path d="M70.5996 44.8C70.5996 43.1 70.5996 41.4 70.5996 39.6C74.0996 39.6 77.4996 39.6 80.9996 39.6C80.9996 43 80.9996 46.4 80.9996 50C79.2996 50 77.4996 50 75.7996 50C75.7996 48.3 75.7996 46.5 75.7996 44.7C73.9996 44.8 72.2996 44.8 70.5996 44.8Z" fill="black"/>
<path d="M181.1 150C181.1 146.5 181.1 143.1 181.1 139.6C182.8 139.6 184.5 139.6 186.3 139.6C186.3 143 186.3 146.4 186.3 150C184.6 150 182.8 150 181.1 150Z" fill="black"/>
<path d="M54.7998 118.4C54.7998 120.1 54.7998 121.8 54.7998 123.6C51.2998 123.6 47.8998 123.6 44.2998 123.6C44.2998 121.9 44.2998 120.1 44.2998 118.4C47.7998 118.4 51.3998 118.4 54.7998 118.4Z" fill="black"/>
<path d="M65.5 23.6C65.5 20.1 65.5 16.7 65.5 13.2C67.2 13.2 68.9 13.2 70.5 13.2C70.5 16.7 70.5 20 70.5 23.6C68.8 23.6 67.2 23.6 65.5 23.6Z" fill="black"/>
<path d="M139 39.5C140.7 39.5 142.4 39.5 144.2 39.5C144.2 43 144.2 46.4 144.2 49.9C142.5 49.9 140.8 49.9 139 49.9C139 46.5 139 43 139 39.5Z" fill="black"/>
<path d="M154.8 97.4C158.3 97.4 161.7 97.4 165.3 97.4C165.3 99.2 165.3 101 165.3 102.7C161.8 102.7 158.3 102.7 154.8 102.7C154.8 100.8 154.8 99.2 154.8 97.4Z" fill="black"/>
<path d="M17.9998 102.6C16.2998 102.6 14.5998 102.6 12.7998 102.6C12.7998 100.9 12.7998 99.2 12.7998 97.4C14.4998 97.4 16.1998 97.4 17.9998 97.4C17.9998 99.2 17.9998 100.9 17.9998 102.6Z" fill="black"/>
<path d="M39.0996 107.9C39.0996 106.2 39.0996 104.5 39.0996 102.6C40.8996 102.6 42.6996 102.6 44.3996 102.6C44.3996 104.4 44.3996 106.2 44.3996 107.9C42.4996 107.9 40.8996 107.9 39.0996 107.9Z" fill="black"/>
<path d="M175.8 97.4C174.1 97.4 172.4 97.4 170.6 97.4C170.6 95.7 170.6 94 170.6 92.2C172.3 92.2 174.1 92.2 175.9 92.2C175.8 93.9 175.8 95.7 175.8 97.4Z" fill="black"/>
<path d="M160.2 87C162 87 163.6 87 165.4 87C165.4 88.7 165.4 90.4 165.4 92C163.7 92 162 92 160.2 92C160.2 90.3 160.2 88.6 160.2 87Z" fill="black"/>
<path d="M81.0999 18.5C79.3999 18.5 77.6999 18.5 75.8999 18.5C75.8999 16.8 75.8999 15.1 75.8999 13.3C77.5999 13.3 79.2999 13.3 81.0999 13.3C81.0999 15 81.0999 16.8 81.0999 18.5Z" fill="black"/>
<path d="M154.8 81.6C154.8 83.3 154.8 85 154.8 86.9C153 86.9 151.2 86.9 149.5 86.9C149.5 85.1 149.5 83.3 149.5 81.6C151.3 81.6 153 81.6 154.8 81.6Z" fill="black"/>
<path d="M17.9998 113.1C17.9998 114.8 17.9998 116.5 17.9998 118.3C16.2998 118.3 14.5998 118.3 12.7998 118.3C12.7998 116.6 12.7998 114.9 12.7998 113.1C14.5998 113.1 16.2998 113.1 17.9998 113.1Z" fill="black"/>
<path d="M65.3999 113.1C67.0999 113.1 68.7999 113.1 70.5999 113.1C70.5999 114.8 70.5999 116.5 70.5999 118.3C68.8999 118.3 67.1999 118.3 65.3999 118.3C65.3999 116.6 65.3999 114.8 65.3999 113.1Z" fill="black"/>
<path d="M175.8 113.1C175.8 114.9 175.8 116.7 175.8 118.4C174.1 118.4 172.3 118.4 170.5 118.4C170.5 116.5 170.5 114.8 170.5 113.1C172.4 113.1 174 113.1 175.8 113.1Z" fill="black"/>
<path d="M102.2 81.6C102.2 79.9 102.2 78.2 102.2 76.4C103.9 76.4 105.6 76.4 107.5 76.4C107.5 78.1 107.5 79.9 107.5 81.6C105.7 81.6 104 81.6 102.2 81.6Z" fill="black"/>
<path d="M175.8 71.1C175.8 72.8 175.8 74.5 175.8 76.4C174 76.4 172.2 76.4 170.5 76.4C170.5 74.6 170.5 72.8 170.5 71.1C172.4 71.1 174 71.1 175.8 71.1Z" fill="black"/>
<path d="M39.0996 71.1C40.8996 71.1 42.6996 71.1 44.3996 71.1C44.3996 72.9 44.3996 74.7 44.3996 76.4C42.6996 76.4 40.8996 76.4 39.0996 76.4C39.0996 74.4 39.0996 72.8 39.0996 71.1Z" fill="black"/>
<path d="M44.3999 129C46.0999 129 47.7999 129 49.3999 129C49.3999 130.7 49.3999 132.4 49.3999 134.2C47.6999 134.2 45.9999 134.2 44.3999 134.2C44.3999 132.4 44.3999 130.8 44.3999 129Z" fill="black"/>
<path d="M91.6997 134.2C91.6997 132.5 91.6997 130.8 91.6997 128.9C93.4997 128.9 95.2997 128.9 96.9997 128.9C96.9997 130.7 96.9997 132.5 96.9997 134.2C95.0997 134.2 93.4997 134.2 91.6997 134.2Z" fill="black"/>
<path d="M44.2998 71.1C44.2998 69.4 44.2998 67.7 44.2998 65.8C46.0998 65.8 47.8998 65.8 49.5998 65.8C49.5998 67.5 49.5998 69.3 49.5998 71.1C47.6998 71.1 45.9998 71.1 44.2998 71.1Z" fill="black"/>
<path d="M91.7 134.2C91.7 135.9 91.7 137.6 91.7 139.4C90 139.4 88.3 139.4 86.5 139.4C86.5 137.7 86.5 136 86.5 134.2C88.2 134.2 90 134.2 91.7 134.2Z" fill="black"/>
<path d="M102.2 139.4C100.5 139.4 98.7999 139.4 96.8999 139.4C96.8999 137.6 96.8999 135.8 96.8999 134.1C98.5999 134.1 100.4 134.1 102.2 134.1C102.2 136.1 102.2 137.8 102.2 139.4Z" fill="black"/>
<path d="M33.7998 139.4C35.4998 139.4 37.1998 139.4 38.9998 139.4C38.9998 141.1 38.9998 142.8 38.9998 144.6C37.2998 144.6 35.5998 144.6 33.7998 144.6C33.7998 142.9 33.7998 141.1 33.7998 139.4Z" fill="black"/>
<path d="M18 65.8C19.7 65.8 21.4 65.8 23.2 65.8C23.2 67.5 23.2 69.2 23.2 71C21.5 71 19.8 71 18 71C18 69.3 18 67.5 18 65.8Z" fill="black"/>
<path d="M133.7 65.8C133.7 64.1 133.7 62.4 133.7 60.6C135.4 60.6 137.1 60.6 138.9 60.6C138.9 62.3 138.9 64 138.9 65.8C137.2 65.8 135.4 65.8 133.7 65.8Z" fill="black"/>
<path d="M170.6 60.6C168.9 60.6 167.2 60.6 165.4 60.6C165.4 58.9 165.4 57.2 165.4 55.4C167.1 55.4 168.8 55.4 170.6 55.4C170.6 57.1 170.6 58.9 170.6 60.6Z" fill="black"/>
<path d="M154.8 60.6C154.8 58.9 154.8 57.2 154.8 55.4C156.5 55.4 158.2 55.4 160 55.4C160 57.1 160 58.8 160 60.6C158.3 60.6 156.5 60.6 154.8 60.6Z" fill="black"/>
<path d="M149.5 60.6C147.8 60.6 146.1 60.6 144.3 60.6C144.3 58.9 144.3 57.2 144.3 55.4C146 55.4 147.7 55.4 149.5 55.4C149.5 57.1 149.5 58.9 149.5 60.6Z" fill="black"/>
<path d="M107.4 160.5C107.4 158.7 107.4 156.9 107.4 155.1C109.1 155.1 110.8 155.1 112.6 155.1C112.6 156.9 112.6 158.6 112.6 160.4C110.9 160.5 109.1 160.5 107.4 160.5Z" fill="black"/>
<path d="M81.1 18.5C82.8 18.5 84.5 18.5 86.3 18.5C86.3 20.2 86.3 21.9 86.3 23.7C84.6 23.7 82.8 23.7 81 23.7C81.1 21.9 81.1 20.2 81.1 18.5Z" fill="black"/>
<path d="M133.7 171C133.7 169.3 133.7 167.6 133.7 165.7C135.5 165.7 137.3 165.7 139.1 165.7C139.1 167.5 139.1 169.2 139.1 171C137.2 171 135.5 171 133.7 171Z" fill="black"/>
<path d="M54.7998 23.6C54.7998 21.9 54.7998 20.2 54.7998 18.6C56.4998 18.6 58.1998 18.6 59.9998 18.6C59.9998 20.3 59.9998 22 59.9998 23.6C58.3998 23.6 56.6998 23.6 54.7998 23.6Z" fill="black"/>
<path d="M96.8996 171C96.8996 172.7 96.8996 174.4 96.8996 176.3C95.0996 176.3 93.3996 176.3 91.5996 176.3C91.5996 174.6 91.5996 172.8 91.5996 171C93.4996 171 95.1996 171 96.8996 171Z" fill="black"/>
<path d="M139 171C140.7 171 142.4 171 144.3 171C144.3 172.8 144.3 174.6 144.3 176.3C142.6 176.3 140.8 176.3 139 176.3C139 174.4 139 172.7 139 171Z" fill="black"/>
<path d="M91.6997 44.8C91.6997 43.1 91.6997 41.4 91.6997 39.5C93.4997 39.5 95.2997 39.5 96.9997 39.5C96.9997 41.3 96.9997 43.1 96.9997 44.8C95.0997 44.8 93.4997 44.8 91.6997 44.8Z" fill="black"/>
<path d="M91.7 181.5C90 181.5 88.3 181.5 86.5 181.5C86.5 179.7 86.5 178 86.5 176.3C88.3 176.3 90 176.3 91.8 176.3C91.7 178.1 91.7 179.8 91.7 181.5Z" fill="black"/>
<path d="M91.6997 181.5C93.3997 181.5 95.0997 181.5 96.8997 181.5C96.8997 183.2 96.8997 184.9 96.8997 186.7C95.1997 186.7 93.4997 186.7 91.6997 186.7C91.6997 185 91.6997 183.2 91.6997 181.5Z" fill="black"/>
<path d="M102.3 181.6C104.1 181.6 105.7 181.6 107.5 181.6C107.5 183.3 107.5 185 107.5 186.6C105.8 186.6 104.1 186.6 102.3 186.6C102.3 185 102.3 183.3 102.3 181.6Z" fill="black"/>
<path d="M175.8 181.5C177.5 181.5 179.2 181.5 181 181.5C181 183.2 181 184.9 181 186.7C179.3 186.7 177.6 186.7 175.8 186.7C175.8 185 175.8 183.2 175.8 181.5Z" fill="black"/>
<path d="M154.7 155.2C152.9 155.2 151.3 155.2 149.7 155.2C149.7 153.5 149.7 151.8 149.7 150C151.4 150 153.1 150 154.7 150C154.7 151.8 154.7 153.4 154.7 155.2Z" fill="black"/>
<path d="M133.7 81.6C135.4 81.6 137.1 81.6 138.9 81.6C138.9 83.3 138.9 85 138.9 86.8C137.2 86.8 135.5 86.8 133.7 86.8C133.7 85.1 133.7 83.3 133.7 81.6Z" fill="black"/>
<path d="M44.2998 81.6C44.2998 79.8 44.2998 78 44.2998 76.3C52.9998 76.3 61.7998 76.3 70.4998 76.3C70.4998 78.1 70.4998 79.8 70.4998 81.6C61.7998 81.6 53.0998 81.6 44.2998 81.6Z" fill="black"/>
<path d="M65.3999 60.6C67.1999 60.6 68.9999 60.6 70.6999 60.6C70.6999 64.1 70.6999 67.5 70.6999 71C68.8999 71 67.1999 71 65.3999 71C65.3999 67.5 65.3999 64 65.3999 60.6Z" fill="black"/>
<path d="M60.0999 92.1C58.3999 92.1 56.6999 92.1 54.8999 92.1C54.8999 90.4 54.8999 88.7 54.8999 86.9C56.5999 86.9 58.2999 86.9 60.0999 86.9C60.0999 88.6 60.0999 90.4 60.0999 92.1Z" fill="black"/>
<path d="M96.8999 44.8C98.5999 44.8 100.3 44.8 102.1 44.8C102.1 46.5 102.1 48.2 102.1 50C100.4 50 98.6999 50 96.8999 50C96.8999 48.2 96.8999 46.5 96.8999 44.8Z" fill="black"/>
<path d="M160.2 39.4C160.2 34.1 160.2 29 160.2 23.8C165.5 23.8 170.5 23.8 175.8 23.8C175.8 29 175.8 34.1 175.8 39.4C170.6 39.4 165.4 39.4 160.2 39.4Z" fill="black"/>
<path d="M38.9999 39.4C33.6999 39.4 28.5999 39.4 23.3999 39.4C23.3999 34.1 23.3999 29.1 23.3999 23.8C28.5999 23.8 33.6999 23.8 38.9999 23.8C38.9999 29 38.9999 34.1 38.9999 39.4Z" fill="black"/>
<path d="M38.9999 176.2C33.6999 176.2 28.5999 176.2 23.3999 176.2C23.3999 170.9 23.3999 165.9 23.3999 160.6C28.5999 160.6 33.6999 160.6 38.9999 160.6C38.9999 165.7 38.9999 170.9 38.9999 176.2Z" fill="black"/>
<path d="M44.2998 113.1C44.2998 111.3 44.2998 109.5 44.2998 107.8C46.0998 107.8 47.8998 107.8 49.5998 107.8C49.5998 109.5 49.5998 111.2 49.5998 113.1C47.7998 113.1 45.9998 113.1 44.2998 113.1Z" fill="black"/>
</g>
<defs>
<clipPath id="clip0">
<rect width="200" height="200" fill="white"/>
</clipPath>
</defs>
</svg>
