<svg width="200" height="50" viewBox="0 0 200 50" fill="none" xmlns="http://www.w3.org/2000/svg">
<rect width="200" height="50" rx="8" fill="white"/>
<path d="M32.4222 10.9999C32.3995 10.7158 32.293 10.4942 32.1026 10.3351C31.9151 10.176 31.6296 10.0965 31.2461 10.0965C31.0018 10.0965 30.8015 10.1263 30.6452 10.186C30.4918 10.2428 30.3782 10.3209 30.3043 10.4204C30.2305 10.5198 30.1921 10.6334 30.1893 10.7613C30.1836 10.8664 30.2021 10.9616 30.2447 11.0468C30.2901 11.1292 30.3612 11.2045 30.4577 11.2726C30.5543 11.338 30.6779 11.3976 30.8285 11.4516C30.979 11.5056 31.158 11.5539 31.3654 11.5965L32.0813 11.7499C32.5643 11.8522 32.9776 11.9871 33.3214 12.1547C33.6651 12.3224 33.9464 12.5198 34.1651 12.7471C34.3839 12.9715 34.5444 13.2243 34.6467 13.5056C34.7518 13.7868 34.8058 14.0937 34.8086 14.426C34.8058 14.9999 34.6623 15.4857 34.3782 15.8834C34.0941 16.2812 33.6879 16.5837 33.1594 16.7911C32.6339 16.9985 32.0018 17.1022 31.2631 17.1022C30.5046 17.1022 29.8427 16.99 29.2773 16.7655C28.7148 16.5411 28.2773 16.1959 27.9648 15.73C27.6552 15.2613 27.4989 14.6618 27.4961 13.9317H29.7461C29.7603 14.1988 29.8271 14.4232 29.9464 14.605C30.0657 14.7868 30.2333 14.9246 30.4492 15.0184C30.668 15.1121 30.9279 15.159 31.229 15.159C31.4819 15.159 31.6935 15.1278 31.864 15.0653C32.0344 15.0028 32.1637 14.9161 32.2518 14.8053C32.3398 14.6945 32.3853 14.5681 32.3881 14.426C32.3853 14.2925 32.3413 14.176 32.256 14.0766C32.1737 13.9743 32.0373 13.8834 31.8469 13.8039C31.6566 13.7215 31.3995 13.6448 31.0756 13.5738L30.2063 13.3863C29.4336 13.2187 28.8242 12.9388 28.3782 12.5468C27.935 12.1519 27.7148 11.6135 27.7177 10.9317C27.7148 10.3778 27.8626 9.89338 28.1609 9.4786C28.462 9.06099 28.8782 8.73571 29.4094 8.50275C29.9435 8.2698 30.5558 8.15332 31.2461 8.15332C31.9506 8.15332 32.56 8.27122 33.0742 8.50701C33.5884 8.74281 33.9847 9.0752 34.2631 9.50417C34.5444 9.93031 34.6864 10.4289 34.6893 10.9999H32.4222Z" fill="#220051"/>
<path d="M44.1644 12.6363C44.1644 13.6079 43.9755 14.4275 43.5977 15.0951C43.2198 15.7599 42.7099 16.2641 42.0678 16.6079C41.4258 16.9488 40.7099 17.1192 39.9201 17.1192C39.1246 17.1192 38.4059 16.9474 37.7638 16.6036C37.1246 16.257 36.6161 15.7513 36.2383 15.0866C35.8633 14.4189 35.6758 13.6022 35.6758 12.6363C35.6758 11.6647 35.8633 10.8465 36.2383 10.1817C36.6161 9.51412 37.1246 9.00985 37.7638 8.66895C38.4059 8.3252 39.1246 8.15332 39.9201 8.15332C40.7099 8.15332 41.4258 8.3252 42.0678 8.66895C42.7099 9.00985 43.2198 9.51412 43.5977 10.1817C43.9755 10.8465 44.1644 11.6647 44.1644 12.6363ZM41.7269 12.6363C41.7269 12.1135 41.6573 11.6732 41.5181 11.3153C41.3817 10.9545 41.1786 10.6817 40.9087 10.4971C40.6417 10.3096 40.3121 10.2158 39.9201 10.2158C39.5281 10.2158 39.1971 10.3096 38.9272 10.4971C38.6602 10.6817 38.457 10.9545 38.3178 11.3153C38.1815 11.6732 38.1133 12.1135 38.1133 12.6363C38.1133 13.159 38.1815 13.6008 38.3178 13.9616C38.457 14.3195 38.6602 14.5922 38.9272 14.7797C39.1971 14.9644 39.5281 15.0567 39.9201 15.0567C40.3121 15.0567 40.6417 14.9644 40.9087 14.7797C41.1786 14.5922 41.3817 14.3195 41.5181 13.9616C41.6573 13.6008 41.7269 13.159 41.7269 12.6363Z" fill="#220051"/>
<path d="M45.2607 16.9999V8.27264H47.63V15.0908H51.1584V16.9999H45.2607Z" fill="#220051"/>
<path d="M57.2809 8.27264H59.6502V13.8635C59.6502 14.5283 59.4911 15.1036 59.1729 15.5894C58.8576 16.0724 58.4173 16.4459 57.8519 16.7101C57.2866 16.9715 56.6303 17.1022 55.8832 17.1022C55.1303 17.1022 54.4712 16.9715 53.9059 16.7101C53.3406 16.4459 52.9002 16.0724 52.5849 15.5894C52.2724 15.1036 52.1161 14.5283 52.1161 13.8635V8.27264H54.4854V13.659C54.4854 13.9289 54.5451 14.1704 54.6644 14.3834C54.7837 14.5937 54.9485 14.7584 55.1587 14.8778C55.3718 14.9971 55.6133 15.0567 55.8832 15.0567C56.1559 15.0567 56.3974 14.9971 56.6076 14.8778C56.8178 14.7584 56.9826 14.5937 57.1019 14.3834C57.2212 14.1704 57.2809 13.9289 57.2809 13.659V8.27264Z" fill="#220051"/>
<path d="M60.5376 10.1817V8.27264H68.1229V10.1817H65.4979V16.9999H63.1626V10.1817H60.5376ZM62.728 19.7272L63.2905 17.6903H65.4041L64.3303 19.7272H62.728Z" fill="#220051"/>
<path d="M71.3839 8.27264V16.9999H69.0146V8.27264H71.3839Z" fill="#220051"/>
<path d="M80.9613 12.6363C80.9613 13.6079 80.7724 14.4275 80.3945 15.0951C80.0167 15.7599 79.5067 16.2641 78.8647 16.6079C78.2227 16.9488 77.5067 17.1192 76.717 17.1192C75.9215 17.1192 75.2028 16.9474 74.5607 16.6036C73.9215 16.257 73.413 15.7513 73.0352 15.0866C72.6602 14.4189 72.4727 13.6022 72.4727 12.6363C72.4727 11.6647 72.6602 10.8465 73.0352 10.1817C73.413 9.51412 73.9215 9.00985 74.5607 8.66895C75.2028 8.3252 75.9215 8.15332 76.717 8.15332C77.5067 8.15332 78.2227 8.3252 78.8647 8.66895C79.5067 9.00985 80.0167 9.51412 80.3945 10.1817C80.7724 10.8465 80.9613 11.6647 80.9613 12.6363ZM78.5238 12.6363C78.5238 12.1135 78.4542 11.6732 78.315 11.3153C78.1786 10.9545 77.9755 10.6817 77.7056 10.4971C77.4386 10.3096 77.109 10.2158 76.717 10.2158C76.3249 10.2158 75.994 10.3096 75.7241 10.4971C75.457 10.6817 75.2539 10.9545 75.1147 11.3153C74.9783 11.6732 74.9102 12.1135 74.9102 12.6363C74.9102 13.159 74.9783 13.6008 75.1147 13.9616C75.2539 14.3195 75.457 14.5922 75.7241 14.7797C75.994 14.9644 76.3249 15.0567 76.717 15.0567C77.109 15.0567 77.4386 14.9644 77.7056 14.7797C77.9755 14.5922 78.1786 14.3195 78.315 13.9616C78.4542 13.6008 78.5238 13.159 78.5238 12.6363Z" fill="#220051"/>
<path d="M89.6087 8.27264V16.9999H87.6314L84.478 12.4147H84.4268V16.9999H82.0575V8.27264H84.0689L87.1712 12.8408H87.2393V8.27264H89.6087Z" fill="#220051"/>
<path d="M92.9965 16.9999H90.4396L93.3203 8.27264H96.559L99.4396 16.9999H96.8828L94.9737 10.676H94.9055L92.9965 16.9999ZM92.5192 13.5567H97.326V15.3295H92.5192V13.5567Z" fill="#220051"/>
<path d="M100.28 16.9999V8.27264H104.047C104.695 8.27264 105.262 8.39054 105.748 8.62633C106.233 8.86213 106.611 9.20162 106.881 9.6448C107.151 10.088 107.286 10.6192 107.286 11.2385C107.286 11.8635 107.147 12.3905 106.868 12.8195C106.593 13.2485 106.205 13.5724 105.705 13.7911C105.208 14.0099 104.627 14.1192 103.962 14.1192H101.712V12.2783H103.485C103.763 12.2783 104 12.2442 104.196 12.176C104.395 12.105 104.547 11.9928 104.652 11.8394C104.76 11.686 104.814 11.4857 104.814 11.2385C104.814 10.9885 104.76 10.7854 104.652 10.6292C104.547 10.4701 104.395 10.3536 104.196 10.2797C104 10.203 103.763 10.1647 103.485 10.1647H102.65V16.9999H100.28ZM105.394 12.9942L107.576 16.9999H105.002L102.871 12.9942H105.394Z" fill="#220051"/>
<path d="M108.296 16.9999V8.27264H114.586V10.1817H110.665V11.6817H114.262V13.5908H110.665V15.0908H114.569V16.9999H108.296Z" fill="#220051"/>
<path d="M118.028 16.9999H115.471L118.352 8.27264H121.59L124.471 16.9999H121.914L120.005 10.676H119.937L118.028 16.9999ZM117.55 13.5567H122.357V15.3295H117.55V13.5567Z" fill="#220051"/>
<path d="M136.157 12.6363C136.157 13.6079 135.968 14.4275 135.59 15.0951C135.212 15.7599 134.702 16.2641 134.06 16.6079C133.418 16.9488 132.702 17.1192 131.912 17.1192C131.117 17.1192 130.398 16.9474 129.756 16.6036C129.117 16.257 128.608 15.7513 128.23 15.0866C127.855 14.4189 127.668 13.6022 127.668 12.6363C127.668 11.6647 127.855 10.8465 128.23 10.1817C128.608 9.51412 129.117 9.00985 129.756 8.66895C130.398 8.3252 131.117 8.15332 131.912 8.15332C132.702 8.15332 133.418 8.3252 134.06 8.66895C134.702 9.00985 135.212 9.51412 135.59 10.1817C135.968 10.8465 136.157 11.6647 136.157 12.6363ZM133.719 12.6363C133.719 12.1135 133.65 11.6732 133.51 11.3153C133.374 10.9545 133.171 10.6817 132.901 10.4971C132.634 10.3096 132.304 10.2158 131.912 10.2158C131.52 10.2158 131.189 10.3096 130.919 10.4971C130.652 10.6817 130.449 10.9545 130.31 11.3153C130.174 11.6732 130.105 12.1135 130.105 12.6363C130.105 13.159 130.174 13.6008 130.31 13.9616C130.449 14.3195 130.652 14.5922 130.919 14.7797C131.189 14.9644 131.52 15.0567 131.912 15.0567C132.304 15.0567 132.634 14.9644 132.901 14.7797C133.171 14.5922 133.374 14.3195 133.51 13.9616C133.65 13.6008 133.719 13.159 133.719 12.6363Z" fill="#220051"/>
<path d="M144.804 8.27264V16.9999H142.827L139.673 12.4147H139.622V16.9999H137.253V8.27264H139.264L142.366 12.8408H142.435V8.27264H144.804Z" fill="#220051"/>
<path d="M145.925 16.9999V8.27264H148.294V15.0908H151.822V16.9999H145.925Z" fill="#220051"/>
<path d="M155.15 8.27264V16.9999H152.78V8.27264H155.15Z" fill="#220051"/>
<path d="M163.824 8.27264V16.9999H161.846L158.693 12.4147H158.642V16.9999H156.272V8.27264H158.284L161.386 12.8408H161.454V8.27264H163.824Z" fill="#220051"/>
<path d="M164.944 16.9999V8.27264H171.234V10.1817H167.314V11.6817H170.91V13.5908H167.314V15.0908H171.217V16.9999H164.944Z" fill="#220051"/>
<path d="M65.1527 29.9999H62.5959L65.4766 21.2726H68.7152L71.5959 29.9999H69.0391L67.13 23.676H67.0618L65.1527 29.9999ZM64.6754 26.5567H69.4822V28.3295H64.6754V26.5567Z" fill="#220051"/>
<path d="M74.8271 29.9999V21.2726H77.1964V28.0908H80.7248V29.9999H74.8271Z" fill="#220051"/>
<path d="M84.0518 21.2726V29.9999H81.6825V21.2726H84.0518Z" fill="#220051"/>
<path d="M84.9361 23.1817V21.2726H92.5213V23.1817H89.8963V29.9999H87.5611V23.1817H84.9361Z" fill="#220051"/>
<path d="M95.7823 21.2726V29.9999H93.413V21.2726H95.7823Z" fill="#220051"/>
<path d="M102.573 24.1533C102.536 24.0028 102.478 23.8706 102.398 23.757C102.319 23.6405 102.219 23.5425 102.1 23.463C101.983 23.3806 101.847 23.3195 101.691 23.2797C101.537 23.2371 101.368 23.2158 101.184 23.2158C100.786 23.2158 100.446 23.311 100.165 23.5013C99.8867 23.6917 99.6737 23.9658 99.5259 24.3238C99.381 24.6817 99.3086 25.1135 99.3086 25.6192C99.3086 26.1306 99.3782 26.5681 99.5174 26.9317C99.6566 27.2954 99.864 27.5738 100.14 27.767C100.415 27.9601 100.757 28.0567 101.167 28.0567C101.527 28.0567 101.827 28.0042 102.066 27.8991C102.307 27.7939 102.488 27.6448 102.607 27.4516C102.726 27.2584 102.786 27.0312 102.786 26.7698L103.195 26.8124H101.201V25.1249H105.07V26.3351C105.07 27.1306 104.901 27.811 104.563 28.3763C104.228 28.9388 103.765 29.3707 103.174 29.6718C102.586 29.9701 101.911 30.1192 101.15 30.1192C100.3 30.1192 99.5543 29.9388 98.9123 29.578C98.2702 29.2172 97.7688 28.703 97.408 28.0354C97.0501 27.3678 96.8711 26.5738 96.8711 25.6533C96.8711 24.9317 96.9805 24.2925 97.1992 23.7357C97.4208 23.1789 97.7276 22.7087 98.1197 22.3252C98.5117 21.9388 98.9648 21.6476 99.479 21.4516C99.9933 21.2528 100.544 21.1533 101.132 21.1533C101.649 21.1533 102.13 21.2272 102.573 21.3749C103.019 21.5198 103.412 21.7272 103.753 21.9971C104.097 22.2641 104.374 22.5809 104.584 22.9474C104.794 23.3138 104.922 23.7158 104.968 24.1533H102.573Z" fill="#220051"/>
<path d="M108.544 21.2726V29.9999H106.175V21.2726H108.544Z" fill="#220051"/>
<path d="M112.036 21.2726V29.9999H109.667V21.2726H112.036Z" fill="#220051"/>
<path d="M113.159 29.9999V21.2726H115.528V28.0908H119.057V29.9999H113.159Z" fill="#220051"/>
<path d="M128.129 25.6363C128.129 26.6079 127.94 27.4275 127.562 28.0951C127.185 28.7599 126.675 29.2641 126.033 29.6079C125.391 29.9488 124.675 30.1192 123.885 30.1192C123.089 30.1192 122.371 29.9474 121.729 29.6036C121.089 29.257 120.581 28.7513 120.203 28.0866C119.828 27.4189 119.641 26.6022 119.641 25.6363C119.641 24.6647 119.828 23.8465 120.203 23.1817C120.581 22.5141 121.089 22.0099 121.729 21.6689C122.371 21.3252 123.089 21.1533 123.885 21.1533C124.675 21.1533 125.391 21.3252 126.033 21.6689C126.675 22.0099 127.185 22.5141 127.562 23.1817C127.94 23.8465 128.129 24.6647 128.129 25.6363ZM125.692 25.6363C125.692 25.1135 125.622 24.6732 125.483 24.3153C125.347 23.9545 125.143 23.6817 124.874 23.4971C124.607 23.3096 124.277 23.2158 123.885 23.2158C123.493 23.2158 123.162 23.3096 122.892 23.4971C122.625 23.6817 122.422 23.9545 122.283 24.3153C122.146 24.6732 122.078 25.1135 122.078 25.6363C122.078 26.159 122.146 26.6008 122.283 26.9616C122.422 27.3195 122.625 27.5922 122.892 27.7797C123.162 27.9644 123.493 28.0567 123.885 28.0567C124.277 28.0567 124.607 27.9644 124.874 27.7797C125.143 27.5922 125.347 27.3195 125.483 26.9616C125.622 26.6008 125.692 26.159 125.692 25.6363Z" fill="#220051"/>
<path d="M129.225 29.9999V21.2726H132.993C133.64 21.2726 134.207 21.3905 134.693 21.6263C135.179 21.8621 135.556 22.2016 135.826 22.6448C136.096 23.088 136.231 23.6192 136.231 24.2385C136.231 24.8635 136.092 25.3905 135.814 25.8195C135.538 26.2485 135.15 26.5724 134.65 26.7911C134.153 27.0099 133.572 27.1192 132.907 27.1192H130.657V25.2783H132.43C132.708 25.2783 132.946 25.2442 133.142 25.176C133.341 25.105 133.493 24.9928 133.598 24.8394C133.706 24.686 133.76 24.4857 133.76 24.2385C133.76 23.9885 133.706 23.7854 133.598 23.6292C133.493 23.4701 133.341 23.3536 133.142 23.2797C132.946 23.203 132.708 23.1647 132.43 23.1647H131.595V29.9999H129.225ZM134.339 25.9942L136.521 29.9999H133.947L131.816 25.9942H134.339Z" fill="#220051"/>
<rect x="77" y="34" width="44" height="12" rx="6" fill="#220051"/>
<path d="M84.1506 42.8182H82V37H84.1477C84.7405 37 85.2509 37.1165 85.679 37.3494C86.1089 37.5805 86.4403 37.9138 86.6733 38.3494C86.9062 38.7831 87.0227 39.3021 87.0227 39.9062C87.0227 40.5123 86.9062 41.0331 86.6733 41.4688C86.4422 41.9044 86.1117 42.2386 85.6818 42.4716C85.2519 42.7027 84.7415 42.8182 84.1506 42.8182ZM83.4062 41.6193H84.0966C84.4223 41.6193 84.6979 41.5644 84.9233 41.4545C85.1506 41.3428 85.322 41.1619 85.4375 40.9119C85.5549 40.66 85.6136 40.3248 85.6136 39.9062C85.6136 39.4877 85.5549 39.1544 85.4375 38.9062C85.3201 38.6562 85.1468 38.4763 84.9176 38.3665C84.6903 38.2547 84.41 38.1989 84.0767 38.1989H83.4062V41.6193Z" fill="white"/>
<path d="M88.4837 42.8182V37H92.5406V38.142H89.89V39.3352H92.3332V40.4801H89.89V41.6761H92.5406V42.8182H88.4837Z" fill="white"/>
<path d="M93.8709 38.142V37H98.7885V38.142H97.0243V42.8182H95.638V38.142H93.8709Z" fill="white"/>
<path d="M100.647 42.8182H99.1359L101.099 37H102.971L104.934 42.8182H103.423L102.056 38.4659H102.011L100.647 42.8182ZM100.446 40.5284H103.605V41.5966H100.446V40.5284Z" fill="white"/>
<path d="M106.201 42.8182V37H107.607V41.6761H110.027V42.8182H106.201Z" fill="white"/>
<path d="M112.802 37V42.8182H111.395V37H112.802Z" fill="white"/>
<path d="M115.731 37V42.8182H114.324V37H115.731Z" fill="white"/>
</svg>
